<svg width="216" height="64" viewBox="0 0 216 64" fill="none" xmlns="http://www.w3.org/2000/svg">
<g id="Frame" clip-path="url(#clip0_206_1898)">
<path id="Vector" d="M208 0H8C3.58172 0 0 3.58172 0 8V56C0 60.4183 3.58172 64 8 64H208C212.418 64 216 60.4183 216 56V8C216 3.58172 212.418 0 208 0Z" fill="black"/>
<path id="Vector_2" d="M208 1.28C209.782 1.28 211.492 1.988 212.752 3.24824C214.012 4.50849 214.72 6.21775 214.72 8V56C214.72 57.7823 214.012 59.4915 212.752 60.7518C211.492 62.012 209.782 62.72 208 62.72H8C6.21775 62.72 4.50849 62.012 3.24824 60.7518C1.988 59.4915 1.28 57.7823 1.28 56V8C1.28 6.21775 1.988 4.50849 3.24824 3.24824C4.50849 1.988 6.21775 1.28 8 1.28H208ZM208 0H8C5.87827 0 3.84344 0.842855 2.34315 2.34315C0.842855 3.84344 0 5.87827 0 8V56C0 58.1217 0.842855 60.1566 2.34315 61.6569C3.84344 63.1571 5.87827 64 8 64H208C210.122 64 212.157 63.1571 213.657 61.6569C215.157 60.1566 216 58.1217 216 56V8C216 5.87827 215.157 3.84344 213.657 2.34315C212.157 0.842855 210.122 0 208 0Z" fill="#A6A6A6"/>
<path id="Vector_3" d="M51.3808 30.9008C51.3366 25.9874 55.4039 23.597 55.5899 23.4857C53.2864 20.1272 49.7161 19.6684 48.4614 19.6318C45.4627 19.3162 42.554 21.4261 41.0265 21.4261C39.4684 21.4261 37.1162 19.6623 34.5809 19.7141C31.3185 19.7644 28.2665 21.6532 26.5926 24.5864C23.1381 30.5669 25.7145 39.3556 29.0242 44.1898C30.6798 46.5573 32.6143 49.2008 35.1465 49.1078C37.6238 49.0056 38.5492 47.5284 41.5387 47.5284C44.5008 47.5284 45.3697 49.1078 47.9522 49.0483C50.6109 49.0056 52.2848 46.6701 53.8825 44.2812C55.7957 41.5677 56.5641 38.8952 56.5946 38.758C56.5321 38.7367 51.4311 36.7899 51.3808 30.9008Z" fill="white"/>
<path id="Vector_4" d="M46.5028 16.4514C47.8352 14.7852 48.7468 12.5183 48.4937 10.2178C46.5653 10.3032 44.1535 11.5517 42.7647 13.1814C41.536 14.6175 40.4383 16.9713 40.7219 19.1849C42.8882 19.3464 45.1124 18.0918 46.5028 16.4514Z" fill="white"/>
<path id="Vector_5" d="M87.2312 48.7674H83.769L81.8726 42.8082H75.2807L73.4741 48.7674H70.1035L76.6344 28.4795H80.6682L87.2312 48.7674ZM81.3009 40.308L79.5858 35.0104C79.4044 34.4692 79.0645 33.1947 78.5629 31.1885H78.5019C78.3022 32.0514 77.9805 33.3258 77.5384 35.0104L75.8539 40.308H81.3009Z" fill="white"/>
<path id="Vector_6" d="M104.027 41.2733C104.027 43.7613 103.354 45.7279 102.01 47.1716C100.805 48.4567 99.3096 49.0985 97.5244 49.0985C95.5974 49.0985 94.2132 48.4064 93.3701 47.0222H93.3092V54.7285H90.059V38.9546C90.059 37.3904 90.0178 35.7851 89.9385 34.1387H92.7969L92.9784 36.4574H93.0393C94.1232 34.7104 95.7682 33.8384 97.9756 33.8384C99.7014 33.8384 101.142 34.5198 102.295 35.8842C103.45 37.2502 104.027 39.046 104.027 41.2733ZM100.715 41.3922C100.715 39.9683 100.395 38.7945 99.7517 37.8706C99.0489 36.9072 98.1052 36.4254 96.9222 36.4254C96.1203 36.4254 95.3916 36.6937 94.7407 37.2227C94.0882 37.7563 93.6613 38.453 93.4616 39.3159C93.361 39.7183 93.3107 40.0476 93.3107 40.3068V42.746C93.3107 43.8101 93.6369 44.708 94.2894 45.4413C94.9419 46.1745 95.7895 46.5404 96.8323 46.5404C98.0564 46.5404 99.0092 46.0678 99.6907 45.1257C100.374 44.182 100.715 42.9381 100.715 41.3922Z" fill="white"/>
<path id="Vector_7" d="M120.853 41.2733C120.853 43.7613 120.18 45.7279 118.834 47.1716C117.631 48.4567 116.136 49.0985 114.351 49.0985C112.424 49.0985 111.04 48.4064 110.198 47.0222H110.137V54.7285H106.887V38.9546C106.887 37.3904 106.846 35.7851 106.766 34.1387H109.625L109.806 36.4574H109.867C110.95 34.7104 112.594 33.8384 114.803 33.8384C116.528 33.8384 117.968 34.5198 119.124 35.8842C120.275 37.2502 120.853 39.046 120.853 41.2733ZM117.541 41.3922C117.541 39.9683 117.22 38.7945 116.576 37.8706C115.874 36.9072 114.933 36.4254 113.749 36.4254C112.945 36.4254 112.218 36.6937 111.565 37.2227C110.913 37.7563 110.488 38.453 110.288 39.3159C110.189 39.7183 110.137 40.0476 110.137 40.3068V42.746C110.137 43.8101 110.463 44.708 111.113 45.4413C111.765 46.173 112.613 46.5404 113.659 46.5404C114.883 46.5404 115.836 46.0678 116.517 45.1257C117.2 44.182 117.541 42.9381 117.541 41.3922Z" fill="white"/>
<path id="Vector_8" d="M139.665 43.0784C139.665 44.8041 139.066 46.2081 137.863 47.2921C136.541 48.4766 134.701 49.0681 132.337 49.0681C130.154 49.0681 128.404 48.6473 127.079 47.8043L127.832 45.0953C129.259 45.9581 130.825 46.3911 132.53 46.3911C133.755 46.3911 134.707 46.1136 135.392 45.5618C136.073 45.0099 136.413 44.269 136.413 43.3452C136.413 42.5219 136.133 41.8283 135.57 41.2658C135.011 40.7032 134.076 40.1803 132.771 39.6971C129.219 38.3723 127.445 36.4316 127.445 33.8796C127.445 32.2118 128.067 30.8443 129.312 29.7802C130.553 28.7146 132.209 28.1826 134.279 28.1826C136.125 28.1826 137.659 28.5042 138.883 29.1461L138.07 31.7956C136.927 31.1736 135.634 30.8626 134.188 30.8626C133.044 30.8626 132.151 31.1447 131.511 31.7057C130.969 32.2072 130.698 32.8186 130.698 33.5427C130.698 34.3446 131.007 35.0077 131.629 35.5291C132.171 36.0108 133.154 36.5322 134.581 37.0947C136.326 37.7975 137.609 38.6192 138.433 39.5614C139.255 40.5005 139.665 41.6758 139.665 43.0784Z" fill="white"/>
<path id="Vector_9" d="M150.411 36.5779H146.829V43.6805C146.829 45.487 147.46 46.3895 148.725 46.3895C149.306 46.3895 149.788 46.3392 150.169 46.2386L150.259 48.7068C149.618 48.9461 148.775 49.0666 147.731 49.0666C146.447 49.0666 145.444 48.6748 144.72 47.8927C143.999 47.1091 143.636 45.795 143.636 43.9488V36.5749H141.502V34.1357H143.636V31.4572L146.829 30.4937V34.1357H150.411V36.5779Z" fill="white"/>
<path id="Vector_10" d="M166.575 41.3326C166.575 43.5813 165.932 45.4274 164.648 46.8711C163.302 48.3575 161.515 49.0984 159.288 49.0984C157.142 49.0984 155.433 48.3865 154.158 46.9626C152.884 45.5387 152.247 43.7413 152.247 41.575C152.247 39.3081 152.902 37.4513 154.218 36.0076C155.53 34.5624 157.302 33.8398 159.529 33.8398C161.676 33.8398 163.403 34.5517 164.706 35.9771C165.953 37.3598 166.575 39.145 166.575 41.3326ZM163.203 41.4378C163.203 40.0887 162.915 38.9316 162.331 37.9666C161.65 36.7988 160.675 36.2164 159.413 36.2164C158.107 36.2164 157.114 36.8003 156.433 37.9666C155.849 38.9331 155.561 40.1085 155.561 41.4988C155.561 42.848 155.849 44.0051 156.433 44.9685C157.136 46.1363 158.117 46.7187 159.384 46.7187C160.625 46.7187 161.599 46.1241 162.302 44.9381C162.901 43.9548 163.203 42.7855 163.203 41.4378Z" fill="white"/>
<path id="Vector_11" d="M177.14 36.9971C176.818 36.9377 176.475 36.9072 176.115 36.9072C174.972 36.9072 174.088 37.3386 173.466 38.203C172.925 38.9652 172.653 39.9287 172.653 41.0919V48.7677H169.404L169.435 38.7457C169.435 37.0596 169.394 35.5245 169.313 34.1402H172.144L172.263 36.9392H172.353C172.696 35.9772 173.237 35.2028 173.978 34.622C174.702 34.0991 175.484 33.8384 176.327 33.8384C176.627 33.8384 176.899 33.8597 177.14 33.8978V36.9971Z" fill="white"/>
<path id="Vector_12" d="M191.676 40.7612C191.676 41.3435 191.638 41.8344 191.557 42.2354H181.806C181.844 43.6806 182.315 44.7858 183.221 45.5481C184.043 46.2295 185.105 46.571 186.41 46.571C187.854 46.571 189.171 46.3408 190.355 45.8789L190.865 48.1351C189.48 48.7388 187.846 49.0392 185.96 49.0392C183.692 49.0392 181.911 48.3714 180.615 47.0375C179.323 45.7036 178.675 43.9123 178.675 41.6652C178.675 39.4593 179.277 37.6223 180.483 36.1572C181.745 34.5931 183.451 33.811 185.598 33.811C187.706 33.811 189.302 34.5931 190.386 36.1572C191.244 37.3997 191.676 38.9364 191.676 40.7612ZM188.576 39.9181C188.598 38.9547 188.386 38.1223 187.945 37.4195C187.383 36.5155 186.518 36.0642 185.355 36.0642C184.293 36.0642 183.428 36.5048 182.768 37.389C182.227 38.0918 181.905 38.9348 181.806 39.9166H188.576V39.9181Z" fill="white"/>
<path id="Vector_13" d="M80.2268 15.9987C80.2268 17.7931 79.6887 19.1438 78.6139 20.0508C77.6184 20.8878 76.2037 21.307 74.3713 21.307C73.4627 21.307 72.6852 21.2674 72.0342 21.1881V11.3841C72.8834 11.2469 73.7981 11.1768 74.7859 11.1768C76.5315 11.1768 77.8471 11.5564 78.7344 12.3156C79.7283 13.1739 80.2268 14.4011 80.2268 15.9987ZM78.5423 16.0429C78.5423 14.8798 78.2343 13.9879 77.6184 13.3659C77.0025 12.7455 76.1031 12.4345 74.9186 12.4345C74.4155 12.4345 73.9871 12.468 73.6319 12.5381V19.9914C73.8285 20.0219 74.1883 20.0356 74.7112 20.0356C75.9339 20.0356 76.8775 19.6956 77.5422 19.0157C78.2069 18.3358 78.5423 17.3449 78.5423 16.0429Z" fill="white"/>
<path id="Vector_14" d="M89.1587 17.5659C89.1587 18.6711 88.8431 19.5767 88.212 20.2871C87.5503 21.0173 86.6738 21.3817 85.5792 21.3817C84.5242 21.3817 83.6842 21.0325 83.0577 20.3313C82.4326 19.6315 82.1201 18.7489 82.1201 17.6848C82.1201 16.5719 82.4418 15.6587 83.0882 14.9498C83.7345 14.2409 84.6035 13.8857 85.6981 13.8857C86.753 13.8857 87.6006 14.2348 88.2425 14.9346C88.8523 15.6145 89.1587 16.4926 89.1587 17.5659ZM87.5016 17.6177C87.5016 16.9545 87.3583 16.3859 87.0732 15.9118C86.7378 15.3386 86.2606 15.052 85.6402 15.052C84.9983 15.052 84.5105 15.3386 84.1751 15.9118C83.8885 16.3859 83.7467 16.9637 83.7467 17.6467C83.7467 18.3098 83.89 18.8784 84.1751 19.3526C84.5212 19.9258 85.0029 20.2124 85.6249 20.2124C86.2347 20.2124 86.7134 19.9212 87.0579 19.3373C87.3537 18.8541 87.5016 18.2808 87.5016 17.6177Z" fill="white"/>
<path id="Vector_15" d="M101.136 14.0322L98.8872 21.2187H97.4237L96.4923 18.098C96.256 17.319 96.0639 16.5446 95.9145 15.7762H95.8855C95.7468 16.5659 95.5547 17.3388 95.3077 18.098L94.3183 21.2187H92.8381L90.7236 14.0322H92.3655L93.178 17.4486C93.3747 18.2566 93.5363 19.0265 93.6659 19.7552H93.6948C93.8137 19.1545 94.0104 18.3892 94.2878 17.4639L95.3077 14.0338H96.6096L97.5868 17.3907C97.8231 18.2093 98.0152 18.9975 98.1631 19.7567H98.2073C98.3156 19.0173 98.4787 18.2291 98.6951 17.3907L99.5672 14.0338H101.136V14.0322Z" fill="white"/>
<path id="Vector_16" d="M109.418 21.2187H107.82V17.1025C107.82 15.8342 107.339 15.2 106.372 15.2C105.898 15.2 105.515 15.3738 105.218 15.7229C104.924 16.072 104.774 16.4836 104.774 16.9547V21.2171H103.177V16.0857C103.177 15.4546 103.157 14.7701 103.119 14.0292H104.523L104.598 15.1527H104.642C104.828 14.8036 105.105 14.5155 105.47 14.2853C105.903 14.017 106.387 13.8813 106.918 13.8813C107.589 13.8813 108.147 14.0978 108.59 14.5322C109.142 15.0643 109.418 15.8586 109.418 16.9135V21.2187Z" fill="white"/>
<path id="Vector_17" d="M113.824 21.2188H112.228V10.7349H113.824V21.2188Z" fill="white"/>
<path id="Vector_18" d="M123.23 17.5659C123.23 18.6711 122.914 19.5767 122.283 20.2871C121.622 21.0173 120.744 21.3817 119.65 21.3817C118.594 21.3817 117.754 21.0325 117.129 20.3313C116.504 19.6315 116.191 18.7489 116.191 17.6848C116.191 16.5719 116.513 15.6587 117.159 14.9498C117.806 14.2409 118.675 13.8857 119.768 13.8857C120.824 13.8857 121.67 14.2348 122.314 14.9346C122.924 15.6145 123.23 16.4926 123.23 17.5659ZM121.571 17.6177C121.571 16.9545 121.428 16.3859 121.143 15.9118C120.809 15.3386 120.33 15.052 119.711 15.052C119.068 15.052 118.58 15.3386 118.246 15.9118C117.96 16.3859 117.818 16.9637 117.818 17.6467C117.818 18.3098 117.961 18.8784 118.246 19.3526C118.592 19.9258 119.074 20.2124 119.696 20.2124C120.306 20.2124 120.783 19.9212 121.128 19.3373C121.425 18.8541 121.571 18.2808 121.571 17.6177Z" fill="white"/>
<path id="Vector_19" d="M130.962 21.2185H129.527L129.409 20.3907H129.364C128.873 21.0508 128.174 21.3817 127.265 21.3817C126.587 21.3817 126.038 21.1637 125.625 20.7307C125.25 20.3374 125.062 19.848 125.062 19.2672C125.062 18.3891 125.428 17.7198 126.164 17.2564C126.899 16.7929 127.933 16.5658 129.264 16.5765V16.4423C129.264 15.4956 128.767 15.023 127.771 15.023C127.062 15.023 126.437 15.2014 125.898 15.5551L125.573 14.5062C126.241 14.0931 127.065 13.8857 128.038 13.8857C129.916 13.8857 130.858 14.8767 130.858 16.8585V19.505C130.858 20.223 130.893 20.7947 130.962 21.2185ZM129.303 18.7489V17.6406C127.541 17.6101 126.66 18.0933 126.66 19.0888C126.66 19.4638 126.761 19.7444 126.966 19.9319C127.172 20.1194 127.434 20.2124 127.747 20.2124C128.098 20.2124 128.425 20.1011 128.724 19.88C129.024 19.6575 129.209 19.3754 129.277 19.0294C129.294 18.9516 129.303 18.8571 129.303 18.7489Z" fill="white"/>
<path id="Vector_20" d="M140.04 21.2188H138.622L138.548 20.0648H138.503C138.051 20.9429 137.279 21.382 136.195 21.382C135.329 21.382 134.608 21.042 134.037 20.3621C133.465 19.6821 133.18 18.7995 133.18 17.7156C133.18 16.5524 133.489 15.6102 134.111 14.8907C134.714 14.2199 135.451 13.8845 136.33 13.8845C137.295 13.8845 137.97 14.2092 138.354 14.8602H138.385V10.7349H139.984V19.2827C139.984 19.9825 140.002 20.6273 140.04 21.2188ZM138.385 18.1881V16.9899C138.385 16.7826 138.369 16.6149 138.34 16.4868C138.25 16.1026 138.057 15.7795 137.763 15.5188C137.465 15.2581 137.107 15.127 136.694 15.127C136.098 15.127 135.631 15.3633 135.288 15.8374C134.948 16.3115 134.776 16.9167 134.776 17.6561C134.776 18.3665 134.939 18.9428 135.267 19.3864C135.613 19.859 136.08 20.0953 136.663 20.0953C137.188 20.0953 137.607 19.8986 137.926 19.5038C138.234 19.1394 138.385 18.7004 138.385 18.1881Z" fill="white"/>
<path id="Vector_21" d="M153.705 17.5659C153.705 18.6711 153.389 19.5767 152.758 20.2871C152.096 21.0173 151.221 21.3817 150.125 21.3817C149.072 21.3817 148.232 21.0325 147.604 20.3313C146.979 19.6315 146.666 18.7489 146.666 17.6848C146.666 16.5719 146.988 15.6587 147.634 14.9498C148.28 14.2409 149.149 13.8857 150.246 13.8857C151.299 13.8857 152.148 14.2348 152.788 14.9346C153.398 15.6145 153.705 16.4926 153.705 17.5659ZM152.049 17.6177C152.049 16.9545 151.906 16.3859 151.621 15.9118C151.284 15.3386 150.808 15.052 150.186 15.052C149.546 15.052 149.058 15.3386 148.721 15.9118C148.434 16.3859 148.293 16.9637 148.293 17.6467C148.293 18.3098 148.436 18.8784 148.721 19.3526C149.067 19.9258 149.549 20.2124 150.171 20.2124C150.781 20.2124 151.261 19.9212 151.605 19.3373C151.9 18.8541 152.049 18.2808 152.049 17.6177Z" fill="white"/>
<path id="Vector_22" d="M162.295 21.2187H160.699V17.1025C160.699 15.8342 160.217 15.2 159.249 15.2C158.775 15.2 158.392 15.3738 158.096 15.7229C157.801 16.072 157.653 16.4836 157.653 16.9547V21.2171H156.053V16.0857C156.053 15.4546 156.035 14.7701 155.997 14.0292H157.4L157.474 15.1527H157.519C157.706 14.8036 157.983 14.5155 158.346 14.2853C158.781 14.017 159.264 13.8813 159.796 13.8813C160.465 13.8813 161.023 14.0978 161.467 14.5322C162.02 15.0643 162.295 15.8586 162.295 16.9135V21.2187Z" fill="white"/>
<path id="Vector_23" d="M173.047 15.2292H171.287V18.7203C171.287 19.6075 171.6 20.0512 172.219 20.0512C172.506 20.0512 172.743 20.0268 172.931 19.9765L172.972 21.1884C172.656 21.3073 172.242 21.3668 171.731 21.3668C171.1 21.3668 170.609 21.1747 170.254 20.7905C169.897 20.4064 169.72 19.76 169.72 18.8529V15.2292H168.67V14.0325H169.72V12.7153L171.286 12.2427V14.031H173.045V15.2292H173.047Z" fill="white"/>
<path id="Vector_24" d="M181.505 21.2188H179.906V17.1332C179.906 15.845 179.424 15.2001 178.459 15.2001C177.718 15.2001 177.212 15.5736 176.935 16.3206C176.887 16.4777 176.86 16.6698 176.86 16.8954V21.2173H175.264V10.7349H176.86V15.066H176.891C177.394 14.2778 178.115 13.8845 179.049 13.8845C179.711 13.8845 180.258 14.101 180.693 14.5355C181.234 15.0767 181.505 15.8816 181.505 16.9457V21.2188Z" fill="white"/>
<path id="Vector_25" d="M190.23 17.2854C190.23 17.572 190.209 17.8129 190.171 18.0096H185.379C185.4 18.72 185.629 19.2612 186.073 19.6362C186.478 19.9716 187.001 20.1393 187.641 20.1393C188.35 20.1393 188.997 20.0265 189.579 19.7993L189.829 20.9091C189.148 21.2049 188.346 21.3528 187.417 21.3528C186.304 21.3528 185.428 21.025 184.794 20.3695C184.156 19.7139 183.841 18.8343 183.841 17.7306C183.841 16.6467 184.135 15.7442 184.728 15.0246C185.347 14.2563 186.184 13.8721 187.24 13.8721C188.274 13.8721 189.059 14.2563 189.59 15.0246C190.018 15.6344 190.23 16.389 190.23 17.2854ZM188.705 16.8723C188.718 16.3982 188.612 15.9896 188.396 15.6451C188.119 15.2014 187.696 14.9789 187.125 14.9789C186.603 14.9789 186.178 15.1953 185.853 15.6298C185.588 15.9759 185.431 16.389 185.379 16.8723H188.705Z" fill="white"/>
</g>
<defs>
<clipPath id="clip0_206_1898">
<rect width="216" height="64" fill="white"/>
</clipPath>
</defs>
</svg>
