<svg width="449" height="416" viewBox="0 0 449 416" fill="none" xmlns="http://www.w3.org/2000/svg">
<path d="M180.247 574.825C176.304 574.357 172.243 574.591 168.301 574.825C164.956 575.059 161.491 575.059 158.146 574.825C155.399 574.591 152.651 574.357 149.904 574.825C148.351 574.357 146.798 574.357 145.245 574.591C143.931 573.187 142.497 573.889 141.064 573.655C139.272 573.187 137.36 572.252 135.568 572.953C135.329 572.953 135.21 572.953 134.971 572.953C134.374 571.784 133.657 572.252 133.06 572.719C132.462 572.252 131.865 572.252 131.268 572.485C129.595 571.316 127.923 570.614 126.131 570.848C125.653 570.38 125.175 570.38 124.697 570.614C122.786 569.679 120.755 568.275 118.724 568.743C118.366 568.275 118.008 568.275 117.53 568.509C116.455 567.339 115.38 566.638 114.185 567.106C113.827 566.638 113.468 566.638 112.99 566.872C111.557 565.468 110.123 564.533 108.451 564.766C108.212 564.766 108.092 564.766 107.854 564.532C107.137 563.363 106.301 562.661 105.345 563.129C105.106 562.895 104.748 562.661 104.509 562.895C103.434 561.492 102.239 560.556 100.805 560.79C100.566 560.79 100.447 560.556 100.208 560.556C99.6108 559.153 98.894 558.685 97.9383 559.153C97.6994 559.153 97.5799 558.919 97.341 558.919C95.5491 556.813 93.6378 555.878 91.6069 555.176C91.368 555.176 91.2485 554.942 91.0096 554.942C89.4566 552.837 87.6647 552.135 85.8728 551.2C85.6339 551.2 85.5144 550.966 85.2755 550.966C85.1561 550.03 84.6782 550.03 84.4393 549.796C82.4085 548.159 80.4971 546.521 78.4663 545.118C77.63 544.65 77.1522 542.779 76.1965 543.48C75.9576 543.48 75.8381 543.246 75.5992 543.246C75.1214 541.141 73.9268 541.375 73.0905 540.44C70.9403 538.334 68.79 535.761 66.5202 534.358C66.4008 534.358 66.1618 534.124 66.0424 534.124C65.8035 533.188 65.3256 532.72 64.8478 532.72C64.6088 532.019 64.2505 531.785 63.7726 531.785C63.6532 531.083 63.5337 530.849 63.0559 531.083C62.9364 531.083 62.9364 530.849 62.8169 530.849C62.578 529.446 61.9807 529.446 61.3834 529.446C61.1445 528.978 60.9056 528.51 60.6667 528.51C60.4277 527.574 59.9499 527.107 59.4721 527.107C59.4721 526.873 59.3526 526.873 59.2331 526.873C58.2775 525.001 57.3218 523.832 56.0077 523.13C54.9325 521.025 53.738 519.855 52.3044 518.686C52.0655 518.218 51.8266 517.984 51.4682 517.984C50.9904 515.879 50.0347 515.411 49.1985 514.709C49.079 514.475 49.079 514.475 48.9595 514.475C48.8401 513.774 48.7206 513.54 48.3622 513.774L48.2428 513.54C48.2428 512.604 47.8844 512.37 47.526 512.604C47.1676 512.136 46.8092 511.668 46.4509 511.201C46.2119 510.031 45.8536 509.797 45.2563 509.797C45.0173 508.861 44.6589 508.628 44.1811 508.394C44.0616 507.458 43.8227 506.756 43.3449 506.99C42.9865 506.522 42.7476 506.054 42.3892 505.821C42.3892 504.885 42.0308 504.651 41.6724 504.885C41.553 504.885 41.4335 504.651 41.4335 504.651C41.3141 503.715 41.0751 503.014 40.5973 503.248C39.8805 502.312 39.5222 500.908 38.6859 500.675C38.5665 499.739 38.3275 499.037 37.7302 499.271C37.6108 499.037 37.6108 499.037 37.4913 499.037C37.4913 498.335 37.2524 497.868 36.894 498.101C36.7746 497.634 36.6551 497.4 36.4162 497.4C36.2967 496.698 36.1773 496.464 35.8189 496.464C35.6994 495.996 35.58 495.762 35.341 495.528C35.2216 494.827 35.1021 494.593 34.7437 494.593C34.2659 493.189 33.4297 492.722 32.7129 491.552C32.7129 490.85 32.474 490.382 32.1156 490.616C31.6378 488.979 30.8015 488.511 30.2042 487.575C30.2042 486.874 29.9653 486.406 29.6069 486.64C28.8902 485.236 28.1734 484.067 27.3372 483.131C27.2177 482.195 26.9788 481.494 26.501 481.494C26.262 481.026 25.9037 480.558 25.6647 480.09C25.6647 479.389 25.4258 478.921 25.0674 479.155C24.8285 478.219 24.3507 477.751 23.9923 477.283C23.7534 476.114 23.5144 475.178 22.7977 475.178C22.2004 473.307 21.3642 472.371 20.5279 471.202C20.289 469.798 19.8112 468.862 19.0944 468.395C17.7803 465.354 16.4663 462.547 15.0328 459.974C15.0328 458.57 14.5549 458.103 13.9576 457.635C13.0019 454.594 11.6879 451.787 10.3738 449.214C10.4933 448.512 10.2543 448.044 9.89595 448.044C9.89595 447.109 9.53757 446.875 9.17919 446.407C9.17919 445.003 8.82081 444.068 8.10404 443.6C8.10404 443.132 7.98458 442.664 7.74566 442.43C7.74566 441.261 7.38728 440.793 7.0289 440.559C7.0289 439.623 6.67052 438.922 6.31214 438.454C6.4316 437.752 6.19268 437.284 5.95376 437.284C5.95376 437.05 5.95375 437.05 5.83429 436.817C5.95375 436.115 5.71484 435.647 5.35645 435.647C5.35645 435.413 5.23699 435.179 5.23699 435.179C5.35645 434.477 5.11753 434.01 4.87861 434.01C4.40077 432.84 4.28131 431.203 3.56455 430.267C3.56455 429.097 3.44508 428.396 2.84778 427.928C2.84778 427.694 2.84778 427.46 2.72832 427.46C2.84778 426.758 2.60886 426.29 2.25048 426.29C2.25048 425.589 2.13102 425.121 1.8921 424.653C2.01156 423.484 1.65318 423.016 1.17534 422.782C1.05588 420.91 0.21965 419.507 -0.138732 417.87C-0.019271 417.168 -0.258189 416.7 -0.61657 416.7C-0.736031 416.466 -0.736032 415.998 -0.855492 415.764C-1.21387 412.957 -1.81118 410.384 -2.88632 408.279C-2.88632 407.344 -3.00578 406.642 -3.36416 406.174C-4.43931 400.092 -5.99229 394.478 -7.30636 388.631C-7.7842 386.525 -7.7842 383.718 -8.85935 382.081C-8.85935 381.613 -8.97881 381.379 -8.97881 380.912C-9.45665 377.637 -9.69557 374.128 -10.8902 371.321C-10.8902 370.853 -11.0096 370.619 -11.0096 370.152C-11.368 366.175 -11.8459 362.433 -12.921 358.924C-12.921 358.456 -13.0405 358.222 -13.0405 357.754C-12.921 356.117 -13.1599 354.48 -13.8767 353.31C-13.8767 352.842 -13.9961 352.608 -13.9961 352.14C-13.8767 349.567 -14.3545 347.228 -14.9518 344.889C-14.8324 344.187 -14.9518 343.72 -15.0713 343.252C-14.9518 341.146 -15.1908 339.509 -15.9075 337.872C-15.9075 337.638 -15.9075 337.17 -15.9075 336.936C-15.6686 333.661 -16.3854 330.854 -16.8632 328.047C-16.7437 327.346 -16.8632 326.878 -16.9827 326.176C-16.8632 324.071 -17.1021 321.966 -17.6994 320.094C-17.58 319.393 -17.58 318.457 -17.8189 317.755C-17.58 317.054 -17.58 316.586 -17.9383 316.118C-17.9383 315.65 -17.9383 315.416 -18.0578 314.948C-17.8189 311.908 -18.4162 309.334 -18.894 306.528C-18.7746 305.826 -18.7746 304.89 -19.0135 304.188C-18.894 301.381 -19.2524 298.575 -19.8497 295.768C-19.7303 294.832 -19.7303 293.896 -19.9692 292.961C-19.7303 287.347 -20.447 282.201 -20.9249 276.821C-20.8054 275.417 -20.8054 274.248 -21.0443 272.844C-20.6859 269.569 -21.1638 266.295 -21.2832 263.02C-21.4027 260.681 -21.0443 258.342 -21.7611 256.003C-21.6416 253.196 -21.6416 250.389 -21.8805 247.582C-21.6416 244.073 -21.4027 240.564 -22 237.056C-21.8805 235.184 -21.8805 233.313 -22 231.442C-21.6416 226.764 -21.8805 222.085 -21.8805 217.173C-21.8805 213.197 -21.6416 208.986 -22 205.01C-21.8805 204.074 -21.8805 203.138 -22 202.203C-21.4027 199.162 -21.6416 195.887 -21.8805 192.846C-21.6416 189.805 -21.6416 186.765 -21.7611 183.724C-21.0443 181.385 -21.4027 178.812 -21.2832 176.239C-21.0443 172.496 -20.5665 168.519 -20.9249 164.777C-20.6859 163.373 -20.6859 162.204 -20.8054 160.8C-20.2081 158.929 -20.447 157.058 -20.5665 155.186C-20.5665 154.719 -20.5665 154.251 -20.5665 154.017C-19.9692 151.444 -19.7303 148.637 -19.9692 145.596C-19.9692 145.128 -19.9692 144.894 -19.9692 144.426C-19.3719 143.725 -19.9692 141.62 -19.2524 141.386C-18.4162 141.386 -18.5356 143.257 -18.2967 144.426C-15.4297 155.42 -12.4432 166.414 -8.85935 176.706C-5.87284 185.595 -2.6474 194.016 0.936414 202.203C4.40077 210.156 8.10405 217.875 12.1657 224.892C17.183 233.781 22.4393 241.734 28.0539 248.985C33.1908 255.535 38.447 261.149 43.9422 266.061C48.7206 270.271 53.738 273.78 58.7553 276.821C63.6532 279.628 68.6705 281.967 73.8073 283.604C82.1695 286.177 90.5318 286.879 99.0135 285.709C105.345 284.774 111.676 282.902 117.888 279.862C121.472 278.224 125.056 275.885 128.52 273.546C133.657 269.803 138.674 265.593 143.572 260.447C150.62 253.196 157.191 244.541 163.283 234.95C167.345 228.635 171.168 221.617 174.871 214.366C179.649 204.542 184.189 194.25 188.131 183.256C188.37 182.554 188.609 181.619 189.087 181.385C189.087 182.554 189.206 183.724 189.087 184.659C188.012 190.507 188.25 196.589 188.25 202.671C188.37 208.518 189.684 213.431 191.834 217.407C194.343 222.085 197.568 224.424 200.913 225.828C207.245 228.635 213.696 228.635 220.027 229.337C223.491 229.57 227.075 228.869 230.539 228.401C234.601 227.933 238.663 227.231 242.724 225.828C246.667 224.424 250.489 222.553 254.312 220.214C258.254 217.875 261.958 214.834 265.661 211.091C268.528 208.284 268.528 207.817 267.333 201.267C266.258 195.185 265.422 189.104 264.227 183.022C264.108 182.32 264.347 181.852 264.705 181.619C265.661 183.724 266.617 185.829 267.453 187.934C271.156 196.355 275.337 203.84 279.518 211.091C283.46 217.875 287.642 223.957 292.062 229.571C296.96 235.886 302.096 241.5 307.472 246.412C312.728 251.324 318.104 255.301 323.719 258.576C328.497 261.383 333.395 263.722 338.412 265.359C343.907 267.23 349.403 268.4 355.017 268.634C364.933 269.102 374.848 267.23 384.524 263.254C390.975 260.681 397.306 257.172 403.399 252.728C409.013 248.517 414.628 243.605 419.884 237.991C426.933 230.272 433.622 221.15 439.834 210.858C444.374 203.372 448.555 194.952 452.378 186.063C457.156 175.069 461.457 163.139 465.04 150.508C466.713 144.66 468.146 138.579 469.699 132.731C469.819 132.029 469.819 130.626 470.416 131.094C470.894 131.327 470.775 132.497 470.775 133.433C471.013 140.684 471.611 148.169 472.089 155.42C472.805 168.987 473.283 182.32 473.761 195.887C473.761 196.823 473.522 197.992 474 198.694C474 199.396 474 199.864 474 200.565C474 201.501 473.881 202.671 473.881 203.606C473.881 215.068 473.881 226.764 473.881 238.225C473.881 241.032 473.761 243.839 474 246.646C474 247.348 474 247.816 474 248.517C473.522 249.219 473.761 250.155 473.761 251.09C473.761 253.663 473.761 256.236 473.642 258.576C472.925 272.844 472.328 287.113 471.133 301.381C470.416 310.036 469.58 318.457 468.624 326.878C467.669 335.299 466.474 343.72 465.16 351.906C463.607 361.965 461.696 371.789 459.665 381.613C457.514 391.672 454.886 401.496 452.139 411.086C448.197 424.653 443.657 437.284 438.52 449.448C434.339 459.272 429.68 468.629 424.782 477.049C418.809 487.342 412.478 496.698 405.669 504.885C400.054 511.668 394.2 517.984 388.227 523.364C383.329 527.808 378.312 532.019 373.175 535.527C368.755 538.568 364.335 541.375 359.915 544.182C354.301 547.457 348.566 550.498 342.832 552.837C336.859 555.41 330.886 557.515 324.913 559.386C318.224 561.492 311.534 563.129 304.844 564.532C297.079 566.17 289.195 566.872 281.31 568.041C276.173 568.743 271.037 568.743 265.9 568.977C258.613 569.445 251.206 569.912 243.919 570.146C232.331 570.614 220.624 571.082 209.037 572.252C201.272 572.953 193.387 573.889 185.622 574.357C185.264 574.357 184.906 574.123 184.667 574.825C182.397 574.357 181.322 574.357 180.247 574.825Z" fill="#8636CD"/>
<path d="M91.6072 84.5213C92.2304 83.5763 93.3728 83.1826 94.2038 82.5527C99.0853 79.5604 103.863 76.4106 108.745 73.4971C112.38 71.371 115.911 69.0874 119.65 66.9613C123.389 64.914 127.024 62.7879 130.867 60.7405C134.606 58.7719 138.449 56.7246 142.292 54.9135C146.343 52.9449 150.498 51.055 154.86 49.4014C156.625 48.7714 158.287 47.984 160.053 47.5115C160.884 47.2753 160.988 46.7241 160.365 46.2516C159.637 45.7004 158.807 45.2279 158.08 44.6767C154.029 41.9994 150.394 39.1646 147.278 35.8574C145.097 33.5738 143.123 31.2115 141.877 28.5342C140.942 26.4868 140.423 24.282 140.942 22.1559C141.565 19.7936 143.227 17.7462 145.72 16.1714C148.109 14.754 150.705 13.5728 153.51 12.9429C157.041 12.1554 160.676 11.5255 164.415 12.3916C165.973 12.7854 167.739 12.8641 169.297 13.3366C170.855 13.809 172.413 14.2815 173.867 14.8327C177.398 16.2501 180.618 17.9037 183.63 19.8723C186.953 21.9984 190.173 24.3608 193.081 26.8806C194.639 28.2192 196.197 29.5579 197.651 30.9753C198.482 31.7627 199.209 32.6289 199.936 33.4163C200.248 33.7313 200.56 33.9675 200.975 34.125C201.287 34.2825 201.598 34.3613 201.91 34.2038C202.221 33.9675 202.221 33.7313 202.014 33.4163C201.39 32.7076 201.39 31.8414 201.39 31.054C201.494 28.8492 201.079 26.6443 201.598 24.4395C202.117 22.5496 202.429 20.581 203.156 18.7699C204.091 16.6438 205.233 14.5177 206.791 12.6279C208.453 10.5018 210.323 8.53319 212.608 6.80082C215.516 4.51724 218.632 2.39115 222.371 1.0525C227.46 -0.837362 231.303 -0.0499207 235.146 3.65105C237.327 5.6984 238.573 8.13947 239.716 10.6593C240.547 12.4704 241.274 14.2815 241.897 16.0926C242.416 17.5888 242.624 19.0849 243.143 20.581C244.39 24.5182 244.701 28.5342 245.532 32.5501C245.948 34.5187 245.74 36.6448 246.155 38.6134C246.467 39.9521 246.467 41.212 246.363 42.5506C246.363 43.1806 246.779 43.4168 247.506 43.5743C250.829 44.1255 254.153 44.283 257.476 44.7555C260.592 45.2279 263.708 45.7792 266.824 46.2516C269.317 46.6453 271.706 47.2753 274.198 47.8265C276.587 48.3777 278.976 48.9289 281.261 49.4801C283.962 50.1888 286.766 50.8975 289.466 51.8425C291.024 52.3937 292.79 52.7086 294.348 53.3386C296.01 53.9685 297.672 54.441 299.333 54.9922C301.514 55.7797 303.696 56.4884 305.877 57.3545C308.369 58.2995 310.758 59.4019 313.251 60.3468C315.848 61.3705 318.34 62.5517 320.833 63.7328C323.533 65.0715 326.338 66.3314 329.038 67.7488C332.258 69.4811 335.582 71.1348 338.697 73.0246C342.748 75.3869 346.591 77.828 350.434 80.4266C353.134 82.2377 355.731 84.285 358.431 86.0174C358.639 86.1749 358.847 86.2536 358.951 86.4111C359.158 86.5686 359.47 86.7261 359.366 86.9623C359.158 87.2773 358.743 87.1198 358.535 87.0411C356.354 86.4111 353.965 86.1749 351.68 85.7024C349.188 85.23 346.695 85.0725 344.202 84.6788C341.813 84.285 339.321 84.4425 336.932 84.1275C333.504 83.7338 329.973 83.7338 326.545 83.9701C322.599 84.2063 318.652 84.3638 314.705 84.915C312.524 85.23 310.343 85.7024 308.058 85.7812C306.915 85.8599 305.773 86.2536 304.63 86.4899C302.034 87.0411 299.437 87.5923 296.841 88.2222C292.271 89.3247 287.908 90.8208 283.65 92.3957C280.015 93.7343 276.691 95.3092 273.368 97.0416C267.032 100.27 261.423 103.971 256.23 108.145C252.283 111.373 248.752 114.759 245.636 118.539C243.663 120.901 241.689 123.342 240.028 125.862C238.885 127.516 237.95 129.169 237.015 130.902C235.977 132.791 235.042 134.603 234.211 136.492C233.38 138.461 232.549 140.43 231.822 142.398C231.303 143.973 230.68 145.548 230.264 147.123C229.537 150.351 228.914 153.501 228.291 156.73C227.252 162.635 227.668 168.541 227.772 174.447C227.876 177.518 228.499 180.668 229.226 183.739C229.641 185.55 229.953 187.361 230.472 189.172C231.199 191.456 231.615 193.818 232.653 196.102C233.484 197.834 233.9 199.724 234.73 201.456C235.354 203.031 236.288 204.527 237.015 206.102C237.119 206.417 237.639 206.732 237.119 207.047C236.704 207.283 236.392 206.89 236.081 206.732C232.653 205.157 229.122 204.134 225.071 204.842C221.748 205.393 218.424 206.023 215.308 207.126C213.335 207.835 211.361 208.622 209.596 209.724C209.388 209.882 209.076 210.276 208.661 209.961C208.349 209.724 208.661 209.488 208.765 209.173C209.492 207.598 210.323 206.023 210.946 204.449C211.777 202.559 212.608 200.59 213.231 198.621C213.646 197.283 214.166 195.944 214.581 194.527C214.893 193.109 215.308 191.692 215.62 190.275C216.243 188.149 216.762 186.022 216.97 183.896C217.074 181.849 217.905 179.88 217.801 177.833C217.801 177.439 217.905 177.124 217.905 176.731C217.905 173.187 217.905 169.644 217.905 166.021C217.905 163.423 217.489 160.903 217.178 158.305C216.866 156.021 216.347 153.816 215.931 151.533C215.62 150.194 214.996 148.855 214.789 147.517C214.477 146.02 213.854 144.603 213.439 143.186C213.023 141.611 212.192 140.036 211.465 138.461C210.738 136.807 210.011 135.154 209.18 133.5C208.349 131.846 207.414 130.272 206.376 128.697C205.026 126.571 203.675 124.445 202.117 122.397C200.248 119.956 198.171 117.515 195.99 115.231C193.185 112.239 189.965 109.404 186.642 106.648C182.695 103.341 178.333 100.428 173.659 97.829C170.439 96.0179 167.116 94.2855 163.584 92.7894C159.845 91.2145 156.002 89.7971 152.055 88.5372C149.459 87.671 146.758 87.0411 144.058 86.3324C141.15 85.6237 138.242 84.9937 135.334 84.5213C132.945 84.1275 130.556 83.8126 128.167 83.4976C124.532 83.0251 120.897 82.9464 117.261 82.7889C114.457 82.7102 111.757 82.5527 108.952 82.8676C108.329 82.9464 107.602 82.9464 106.979 82.8676C103.967 82.7102 100.955 83.3401 97.9428 83.4976C95.8656 83.9701 93.8922 84.6788 91.6072 84.5213Z" fill="#8636CD"/>
<path d="M119.754 67.0402C119.754 67.0402 111.341 69.4813 94.3076 82.6315C58.6826 109.956 0.830869 168.148 12.3597 237.679C29.3932 340.597 176.567 301.776 276.483 295.634C376.4 289.492 436.64 249.333 439.133 229.017C441.418 208.701 416.075 105.704 321.041 63.8117C226.006 21.9198 119.754 67.0402 119.754 67.0402Z" fill="#8636CD"/>
<path d="M0 184.526C0 179.959 0 175.471 0 170.904C0.623178 170.904 0.727041 170.589 0.727041 170.195C0.830904 169.014 0.830904 167.911 1.03863 166.73C1.35022 164.683 1.76567 162.714 2.28499 160.746C2.70044 159.249 3.01203 157.675 3.53134 156.178C4.15452 153.895 4.98543 151.611 5.81633 149.406C6.43951 147.674 7.16655 146.02 7.99745 144.367C8.7245 142.949 9.24381 141.532 10.0747 140.115C11.3211 137.989 12.5674 135.862 13.9176 133.736C15.164 131.846 16.4104 129.957 17.7606 128.146C19.5263 125.862 21.3958 123.578 23.3692 121.452C27.0044 117.436 31.0551 113.657 35.4173 110.113C39.2602 107.042 43.3109 104.207 47.6731 101.609C51.3083 99.4039 55.0474 97.3566 58.9942 95.5454C62.3178 93.9706 65.8492 92.6319 69.3805 91.2933C72.4964 90.1908 75.6123 89.2459 78.8321 88.3797C82.3634 87.3561 86.1025 86.5686 89.7377 85.7024C90.257 86.0174 90.7763 85.8599 91.2956 85.7812C93.1652 85.5449 95.0347 85.1512 96.9042 84.915C100.851 84.3638 104.798 83.9701 108.848 83.8126C117.988 83.4976 127.024 83.9701 135.957 85.5449C137.411 85.7812 138.761 86.0962 140.111 86.3324C143.435 86.8836 146.551 87.671 149.667 88.5372C152.679 89.4034 155.587 90.3483 158.495 91.4508C162.961 93.1044 167.323 94.9942 171.374 97.1991C177.71 100.585 183.422 104.444 188.615 108.853C191.42 111.216 194.12 113.735 196.509 116.334C199.002 119.011 201.287 121.767 203.26 124.602C204.61 126.492 205.857 128.382 206.999 130.35C208.038 132.161 209.076 133.973 210.011 135.784C210.738 137.359 211.465 138.855 212.088 140.508C212.815 142.319 213.439 144.209 214.062 146.02C214.581 147.359 214.997 148.776 215.308 150.115C215.724 152.005 216.139 153.895 216.554 155.785C217.178 158.934 217.593 162.163 217.801 165.313C218.216 171.927 217.905 178.463 216.658 185.077C216.139 187.834 215.516 190.668 214.789 193.424C214.166 195.708 213.542 197.992 212.712 200.196C211.569 203.267 210.323 206.338 208.765 209.409C208.349 210.118 207.726 210.827 207.726 211.614C207.518 212.165 206.895 212.48 206.376 212.874C202.948 215.315 200.352 218.15 198.586 221.379C196.924 224.371 195.47 227.521 194.12 230.592C193.808 231.379 192.978 232.088 192.978 232.954C192.562 233.033 192.354 233.348 192.147 233.584C188.615 237.285 184.772 240.75 180.618 244.057C177.502 246.498 174.074 248.781 170.543 250.986C165.142 254.294 159.43 257.128 153.406 259.569C149.147 261.223 144.889 262.719 140.319 263.979C137.307 264.845 134.191 265.554 131.075 266.105C125.674 267.129 120.17 267.759 114.665 268.074C107.291 268.468 100.02 268.231 92.7497 267.365C88.3875 266.814 84.0252 266.026 79.6629 265.082C75.1968 264.058 70.9385 262.877 66.7839 261.459C62.0062 259.806 57.4363 257.916 52.9702 255.711C48.0886 253.27 43.5186 250.593 39.1564 247.6C35.625 245.238 32.4053 242.639 29.3932 239.962C26.2773 237.285 23.473 234.371 20.8765 231.379C17.8644 227.914 15.164 224.213 12.6713 220.512C12.4636 220.119 12.4636 219.489 11.8404 219.489C11.2172 219.489 11.8404 220.276 11.2172 220.512C10.9056 220.276 10.9056 219.961 11.1133 219.804C11.9443 218.544 11.0095 217.441 10.3863 216.339C8.7245 213.425 7.27041 210.512 6.12792 207.441C4.7777 204.055 3.63521 200.669 2.8043 197.204C1.86953 193.346 1.03863 189.487 0.934767 185.55C0.727041 184.92 0.727041 184.526 0 184.526Z" fill="#F7D9D3"/>
<path d="M160.759 125.538C160.967 131.522 159.305 137.113 156.501 142.468C154.112 147.114 151.1 151.366 146.53 154.909C143.207 157.508 139.468 159.477 135.001 160.815C131.055 161.918 127.108 162.39 122.953 162.311C117.864 162.233 112.982 161.288 108.309 159.713C104.777 158.532 101.454 156.957 98.8571 154.752C95.8451 152.232 93.9756 149.319 92.9369 145.933C91.4828 141.208 91.8983 136.405 93.2485 131.759C94.2871 128.215 95.949 124.75 97.9224 121.364C100.311 117.348 103.116 113.647 106.855 110.34C110.801 106.797 115.371 103.962 121.084 102.151C124.927 100.97 128.874 100.182 133.028 100.34C143.83 100.812 152.243 104.356 157.02 111.994C159.825 116.325 160.967 120.971 160.759 125.538Z" fill="#8636CD"/>
<path d="M448.067 185.115C447.859 189.011 447.133 192.908 446.096 196.804C445.266 200.303 444.021 203.722 442.673 207.141C441.532 210.163 440.08 213.105 438.317 216.047C437.695 217.081 436.761 218.194 437.591 219.467C437.695 219.626 437.695 219.944 437.487 220.182C436.969 219.944 437.487 219.228 436.865 219.149C436.139 219.149 436.243 219.785 436.035 220.182C433.546 223.92 430.849 227.577 427.841 231.076C425.248 234.098 422.344 236.961 419.233 239.664C416.121 242.368 412.906 244.992 409.379 247.377C405.023 250.32 400.356 253.103 395.377 255.488C390.917 257.635 386.25 259.623 381.479 261.214C377.226 262.645 372.87 263.838 368.41 264.792C364.054 265.746 359.698 266.541 355.238 267.098C347.873 267.973 340.509 268.211 333.145 267.814C327.544 267.496 322.047 266.859 316.55 265.826C313.439 265.269 310.327 264.474 307.215 263.679C302.652 262.406 298.296 260.975 294.043 259.305C287.924 256.84 282.115 253.977 276.722 250.638C273.195 248.491 269.773 246.185 266.661 243.72C262.409 240.459 258.571 236.961 255.045 233.223C254.837 232.985 254.63 232.667 254.111 232.587C254.111 231.712 253.281 230.997 252.97 230.202C251.622 227.1 250.17 223.999 248.51 220.977C246.747 217.717 244.05 214.855 240.628 212.469C240.109 212.071 239.487 211.833 239.279 211.276C239.279 210.481 238.657 209.765 238.242 209.05C236.686 206.028 235.442 202.927 234.301 199.826C233.471 197.599 232.745 195.293 232.226 193.067C231.5 190.283 230.878 187.5 230.359 184.717C229.115 178.117 228.7 171.517 229.218 164.917C229.426 161.736 229.841 158.556 230.463 155.375C230.878 153.467 231.293 151.558 231.708 149.729C232.019 148.377 232.434 146.946 232.952 145.594C233.678 143.765 234.301 141.936 235.027 140.028C235.649 138.438 236.375 136.847 237.101 135.336C238.035 133.508 239.072 131.679 240.109 129.85C241.25 127.862 242.494 126.033 243.843 124.124C245.917 121.262 248.095 118.479 250.688 115.775C253.178 113.151 255.771 110.686 258.675 108.221C263.861 103.847 269.669 99.9509 275.996 96.5316C280.145 94.3051 284.501 92.4762 289.065 90.8063C291.969 89.693 294.977 88.7388 297.984 87.8641C301.096 86.9894 304.311 86.1942 307.63 85.6376C309.082 85.399 310.431 85.081 311.883 84.8424C320.906 83.2521 330.034 82.7749 339.265 83.093C343.31 83.2521 347.355 83.6496 351.296 84.2063C353.163 84.4448 355.03 84.8424 356.897 85.081C357.416 85.1605 357.934 85.24 358.453 85.0015C362.083 85.8762 365.817 86.6713 369.447 87.7051C372.662 88.6593 375.878 89.534 378.989 90.6472C382.516 91.9195 386.042 93.3509 389.465 94.9412C393.406 96.7701 397.244 98.8376 400.874 100.985C405.23 103.609 409.379 106.471 413.217 109.573C417.677 113.151 421.722 116.888 425.352 120.944C427.323 123.17 429.293 125.397 431.057 127.703C432.509 129.532 433.753 131.44 434.998 133.348C436.346 135.495 437.591 137.642 438.836 139.789C439.665 141.141 440.288 142.652 440.91 144.083C441.74 145.753 442.466 147.423 443.088 149.173C443.918 151.399 444.748 153.705 445.474 156.011C445.888 157.522 446.303 159.112 446.718 160.623C447.237 162.611 447.652 164.679 447.963 166.667C448.17 167.78 448.17 168.973 448.274 170.165C448.274 170.563 448.481 170.881 449 170.881C449 175.414 449 180.026 449 184.558C448.067 184.32 448.067 184.717 448.067 185.115Z" fill="#F7D9D3"/>
<path d="M289.728 126.304C289.52 132.288 291.182 137.8 293.986 143.155C296.375 147.722 299.491 151.974 304.061 155.518C307.384 158.038 311.227 160.085 315.797 161.345C319.744 162.447 323.795 162.841 327.949 162.841C333.142 162.762 338.024 161.817 342.698 160.243C346.333 159.061 349.553 157.565 352.149 155.36C355.161 152.841 357.135 149.927 358.07 146.62C359.524 141.895 359.108 137.17 357.758 132.525C356.719 128.981 355.058 125.516 353.084 122.209C350.695 118.272 347.787 114.571 344.048 111.264C340.101 107.799 335.427 104.885 329.715 103.153C325.872 101.972 321.821 101.184 317.667 101.342C306.761 101.814 298.348 105.358 293.467 112.917C290.662 117.169 289.52 121.737 289.728 126.304Z" fill="#8636CD"/>
<path d="M258.307 232.088C257.996 232.167 257.788 232.324 257.892 232.639C259.035 234.686 259.762 236.812 260.696 238.939C261.735 241.301 261.735 241.38 259.138 242.403C255.919 243.663 252.491 244.687 248.96 245.553C245.532 246.34 242.105 246.97 238.573 247.443C234.938 247.915 231.303 248.23 227.668 248.388C224.552 248.545 221.332 248.86 218.216 248.703C212.504 248.467 206.688 248.467 201.079 247.522C198.067 247.049 195.263 246.262 192.978 244.608C191.004 243.269 189.862 241.537 189.758 239.49C189.654 237.364 189.446 235.316 190.485 233.269C190.693 232.954 190.485 232.481 190.589 232.088C190.589 231.143 191.42 230.513 191.731 229.647C193.185 226.497 194.639 223.268 196.301 220.197C198.171 216.89 200.871 213.977 204.299 211.457C204.818 211.063 205.441 210.748 205.649 210.197C206.999 210.276 207.622 209.409 208.557 208.937C212.088 206.968 215.931 205.708 220.086 204.842C221.852 204.449 223.721 204.134 225.591 204.055C229.122 203.819 232.342 204.527 235.25 206.023C236.289 206.575 237.327 207.205 238.573 207.52C242.624 210.669 246.052 214.055 248.856 217.914C251.453 221.457 253.737 225.001 255.711 228.781C256.542 229.883 257.165 231.143 258.307 232.088Z" fill="#FD818D"/>
</svg>
