<svg width="449" height="464" viewBox="0 0 449 464" fill="none" xmlns="http://www.w3.org/2000/svg">
<g clip-path="url(#clip0_310_1713)">
<path d="M180.247 622.825C176.304 622.357 172.243 622.591 168.301 622.825C164.956 623.059 161.491 623.059 158.146 622.825C155.399 622.591 152.651 622.357 149.904 622.825C148.351 622.357 146.798 622.357 145.245 622.591C143.931 621.187 142.497 621.889 141.064 621.655C139.272 621.187 137.36 620.252 135.568 620.953C135.329 620.953 135.21 620.953 134.971 620.953C134.374 619.784 133.657 620.252 133.06 620.719C132.462 620.252 131.865 620.252 131.268 620.485C129.595 619.316 127.923 618.614 126.131 618.848C125.653 618.38 125.175 618.38 124.697 618.614C122.786 617.679 120.755 616.275 118.724 616.743C118.366 616.275 118.008 616.275 117.53 616.509C116.455 615.339 115.38 614.638 114.185 615.106C113.827 614.638 113.468 614.638 112.99 614.872C111.557 613.468 110.123 612.533 108.451 612.766C108.212 612.766 108.092 612.766 107.854 612.532C107.137 611.363 106.301 610.661 105.345 611.129C105.106 610.895 104.748 610.661 104.509 610.895C103.434 609.492 102.239 608.556 100.805 608.79C100.566 608.79 100.447 608.556 100.208 608.556C99.6108 607.153 98.894 606.685 97.9383 607.153C97.6994 607.153 97.5799 606.919 97.341 606.919C95.5491 604.813 93.6378 603.878 91.6069 603.176C91.368 603.176 91.2485 602.942 91.0096 602.942C89.4566 600.837 87.6647 600.135 85.8728 599.2C85.6339 599.2 85.5144 598.966 85.2755 598.966C85.1561 598.03 84.6782 598.03 84.4393 597.796C82.4085 596.159 80.4971 594.521 78.4663 593.118C77.63 592.65 77.1522 590.779 76.1965 591.48C75.9576 591.48 75.8381 591.246 75.5992 591.246C75.1214 589.141 73.9268 589.375 73.0905 588.44C70.9403 586.334 68.79 583.761 66.5202 582.358C66.4008 582.358 66.1618 582.124 66.0424 582.124C65.8035 581.188 65.3256 580.72 64.8478 580.72C64.6088 580.019 64.2505 579.785 63.7726 579.785C63.6532 579.083 63.5337 578.849 63.0559 579.083C62.9364 579.083 62.9364 578.849 62.8169 578.849C62.578 577.446 61.9807 577.446 61.3834 577.446C61.1445 576.978 60.9056 576.51 60.6667 576.51C60.4277 575.574 59.9499 575.107 59.4721 575.107C59.4721 574.873 59.3526 574.873 59.2331 574.873C58.2775 573.001 57.3218 571.832 56.0077 571.13C54.9325 569.025 53.738 567.855 52.3044 566.686C52.0655 566.218 51.8266 565.984 51.4682 565.984C50.9904 563.879 50.0347 563.411 49.1984 562.709C49.079 562.475 49.079 562.475 48.9595 562.475C48.8401 561.774 48.7206 561.54 48.3622 561.774L48.2428 561.54C48.2428 560.604 47.8844 560.37 47.526 560.604C47.1676 560.136 46.8092 559.668 46.4509 559.201C46.2119 558.031 45.8536 557.797 45.2563 557.797C45.0173 556.861 44.659 556.628 44.1811 556.394C44.0616 555.458 43.8227 554.756 43.3449 554.99C42.9865 554.522 42.7476 554.054 42.3892 553.821C42.3892 552.885 42.0308 552.651 41.6724 552.885C41.553 552.885 41.4335 552.651 41.4335 552.651C41.3141 551.715 41.0751 551.014 40.5973 551.248C39.8805 550.312 39.5222 548.908 38.6859 548.675C38.5665 547.739 38.3275 547.037 37.7302 547.271C37.6108 547.037 37.6108 547.037 37.4913 547.037C37.4913 546.335 37.2524 545.868 36.894 546.101C36.7746 545.634 36.6551 545.4 36.4162 545.4C36.2967 544.698 36.1773 544.464 35.8189 544.464C35.6994 543.996 35.58 543.762 35.341 543.528C35.2216 542.827 35.1021 542.593 34.7437 542.593C34.2659 541.189 33.4297 540.722 32.7129 539.552C32.7129 538.85 32.474 538.382 32.1156 538.616C31.6378 536.979 30.8015 536.511 30.2042 535.575C30.2042 534.874 29.9653 534.406 29.6069 534.64C28.8902 533.236 28.1734 532.067 27.3372 531.131C27.2177 530.195 26.9788 529.494 26.501 529.494C26.262 529.026 25.9037 528.558 25.6647 528.09C25.6647 527.389 25.4258 526.921 25.0674 527.155C24.8285 526.219 24.3507 525.751 23.9923 525.283C23.7534 524.114 23.5144 523.178 22.7977 523.178C22.2004 521.307 21.3642 520.371 20.5279 519.202C20.289 517.798 19.8112 516.862 19.0944 516.395C17.7803 513.354 16.4663 510.547 15.0328 507.974C15.0328 506.57 14.5549 506.103 13.9576 505.635C13.0019 502.594 11.6879 499.787 10.3738 497.214C10.4933 496.512 10.2543 496.044 9.89595 496.044C9.89595 495.109 9.53757 494.875 9.17919 494.407C9.17919 493.003 8.82081 492.068 8.10404 491.6C8.10404 491.132 7.98458 490.664 7.74566 490.43C7.74566 489.261 7.38728 488.793 7.0289 488.559C7.0289 487.623 6.67052 486.922 6.31214 486.454C6.4316 485.752 6.19268 485.284 5.95376 485.284C5.95376 485.05 5.95375 485.05 5.83429 484.816C5.95375 484.115 5.71484 483.647 5.35645 483.647C5.35645 483.413 5.23699 483.179 5.23699 483.179C5.35645 482.477 5.11753 482.01 4.87861 482.01C4.40077 480.84 4.28131 479.203 3.56455 478.267C3.56455 477.097 3.44508 476.396 2.84778 475.928C2.84778 475.694 2.84778 475.46 2.72832 475.46C2.84778 474.758 2.60886 474.29 2.25048 474.29C2.25048 473.589 2.13102 473.121 1.8921 472.653C2.01156 471.484 1.65318 471.016 1.17534 470.782C1.05588 468.91 0.21965 467.507 -0.138731 465.87C-0.0192719 465.168 -0.258188 464.7 -0.61657 464.7C-0.736031 464.466 -0.736032 463.998 -0.855492 463.764C-1.21387 460.957 -1.81118 458.384 -2.88632 456.279C-2.88632 455.344 -3.00578 454.642 -3.36416 454.174C-4.43931 448.092 -5.99229 442.478 -7.30636 436.631C-7.7842 434.525 -7.7842 431.718 -8.85935 430.081C-8.85935 429.613 -8.97881 429.379 -8.97881 428.912C-9.45665 425.637 -9.69557 422.128 -10.8902 419.321C-10.8902 418.853 -11.0096 418.619 -11.0096 418.152C-11.368 414.175 -11.8459 410.433 -12.921 406.924C-12.921 406.456 -13.0405 406.222 -13.0405 405.754C-12.921 404.117 -13.1599 402.48 -13.8767 401.31C-13.8767 400.842 -13.9961 400.608 -13.9961 400.14C-13.8767 397.567 -14.3545 395.228 -14.9518 392.889C-14.8324 392.187 -14.9518 391.719 -15.0713 391.252C-14.9518 389.146 -15.1908 387.509 -15.9075 385.872C-15.9075 385.638 -15.9075 385.17 -15.9075 384.936C-15.6686 381.661 -16.3854 378.854 -16.8632 376.047C-16.7437 375.346 -16.8632 374.878 -16.9827 374.176C-16.8632 372.071 -17.1021 369.966 -17.6994 368.094C-17.58 367.393 -17.58 366.457 -17.8189 365.755C-17.58 365.054 -17.58 364.586 -17.9383 364.118C-17.9383 363.65 -17.9383 363.416 -18.0578 362.948C-17.8189 359.908 -18.4162 357.334 -18.894 354.528C-18.7746 353.826 -18.7746 352.89 -19.0135 352.188C-18.894 349.381 -19.2524 346.575 -19.8497 343.768C-19.7303 342.832 -19.7303 341.896 -19.9692 340.961C-19.7303 335.347 -20.447 330.201 -20.9249 324.821C-20.8054 323.417 -20.8054 322.248 -21.0443 320.844C-20.6859 317.569 -21.1638 314.295 -21.2832 311.02C-21.4027 308.681 -21.0443 306.342 -21.7611 304.003C-21.6416 301.196 -21.6416 298.389 -21.8805 295.582C-21.6416 292.073 -21.4027 288.564 -22 285.056C-21.8805 283.184 -21.8805 281.313 -22 279.442C-21.6416 274.764 -21.8805 270.085 -21.8805 265.173C-21.8805 261.197 -21.6416 256.986 -22 253.01C-21.8805 252.074 -21.8805 251.138 -22 250.203C-21.4027 247.162 -21.6416 243.887 -21.8805 240.846C-21.6416 237.805 -21.6416 234.765 -21.7611 231.724C-21.0443 229.385 -21.4027 226.812 -21.2832 224.239C-21.0443 220.496 -20.5665 216.519 -20.9249 212.777C-20.6859 211.373 -20.6859 210.204 -20.8054 208.8C-20.2081 206.929 -20.447 205.058 -20.5665 203.186C-20.5665 202.719 -20.5665 202.251 -20.5665 202.017C-19.9692 199.444 -19.7303 196.637 -19.9692 193.596C-19.9692 193.128 -19.9692 192.894 -19.9692 192.426C-19.3719 191.725 -19.9692 189.62 -19.2524 189.386C-18.4162 189.386 -18.5356 191.257 -18.2967 192.426C-15.4297 203.42 -12.4432 214.414 -8.85935 224.706C-5.87284 233.595 -2.6474 242.016 0.936415 250.203C4.40077 258.156 8.10405 265.875 12.1657 272.892C17.183 281.781 22.4393 289.734 28.0539 296.985C33.1908 303.535 38.447 309.149 43.9422 314.061C48.7206 318.271 53.738 321.78 58.7553 324.821C63.6532 327.628 68.6705 329.967 73.8073 331.604C82.1695 334.177 90.5318 334.879 99.0135 333.709C105.345 332.774 111.676 330.902 117.888 327.862C121.472 326.224 125.056 323.885 128.52 321.546C133.657 317.803 138.674 313.593 143.572 308.447C150.62 301.196 157.191 292.541 163.283 282.95C167.345 276.635 171.168 269.617 174.871 262.366C179.649 252.542 184.189 242.25 188.131 231.256C188.37 230.554 188.609 229.619 189.087 229.385C189.087 230.554 189.206 231.724 189.087 232.659C188.012 238.507 188.25 244.589 188.25 250.671C188.37 256.518 189.684 261.431 191.834 265.407C194.343 270.085 197.568 272.424 200.913 273.828C207.245 276.635 213.696 276.635 220.027 277.337C223.491 277.57 227.075 276.869 230.539 276.401C234.601 275.933 238.663 275.231 242.724 273.828C246.667 272.424 250.489 270.553 254.312 268.214C258.254 265.875 261.958 262.834 265.661 259.091C268.528 256.284 268.528 255.817 267.333 249.267C266.258 243.185 265.422 237.104 264.227 231.022C264.108 230.32 264.347 229.852 264.705 229.619C265.661 231.724 266.617 233.829 267.453 235.934C271.156 244.355 275.337 251.84 279.518 259.091C283.46 265.875 287.642 271.957 292.062 277.571C296.96 283.886 302.096 289.5 307.472 294.412C312.728 299.324 318.104 303.301 323.719 306.576C328.497 309.383 333.395 311.722 338.412 313.359C343.908 315.23 349.403 316.4 355.017 316.634C364.933 317.102 374.848 315.23 384.524 311.254C390.975 308.681 397.306 305.172 403.399 300.728C409.013 296.517 414.628 291.605 419.884 285.991C426.933 278.272 433.622 269.15 439.834 258.858C444.374 251.372 448.555 242.952 452.378 234.063C457.156 223.069 461.457 211.139 465.04 198.508C466.713 192.66 468.146 186.579 469.699 180.731C469.819 180.029 469.819 178.626 470.416 179.094C470.894 179.327 470.775 180.497 470.775 181.433C471.013 188.684 471.611 196.169 472.089 203.42C472.805 216.987 473.283 230.32 473.761 243.887C473.761 244.823 473.522 245.992 474 246.694C474 247.396 474 247.864 474 248.565C474 249.501 473.88 250.671 473.88 251.606C473.88 263.068 473.88 274.764 473.88 286.225C473.88 289.032 473.761 291.839 474 294.646C474 295.348 474 295.816 474 296.517C473.522 297.219 473.761 298.155 473.761 299.09C473.761 301.663 473.761 304.236 473.642 306.576C472.925 320.844 472.328 335.113 471.133 349.381C470.416 358.036 469.58 366.457 468.624 374.878C467.669 383.299 466.474 391.72 465.16 399.906C463.607 409.965 461.696 419.789 459.665 429.613C457.514 439.672 454.886 449.496 452.139 459.086C448.197 472.653 443.657 485.284 438.52 497.448C434.339 507.272 429.68 516.629 424.782 525.049C418.809 535.342 412.478 544.698 405.669 552.885C400.054 559.668 394.2 565.984 388.227 571.364C383.329 575.808 378.312 580.019 373.175 583.527C368.755 586.568 364.335 589.375 359.915 592.182C354.301 595.457 348.566 598.498 342.832 600.837C336.859 603.41 330.886 605.515 324.913 607.386C318.224 609.492 311.534 611.129 304.844 612.532C297.079 614.17 289.195 614.872 281.31 616.041C276.173 616.743 271.037 616.743 265.9 616.977C258.613 617.445 251.206 617.912 243.919 618.146C232.331 618.614 220.624 619.082 209.037 620.252C201.272 620.953 193.387 621.889 185.622 622.357C185.264 622.357 184.906 622.123 184.667 622.825C182.397 622.357 181.322 622.357 180.247 622.825Z" fill="#8636CD"/>
<path d="M91.6072 132.521C92.2304 131.576 93.3728 131.183 94.2038 130.553C99.0853 127.56 103.863 124.411 108.745 121.497C112.38 119.371 115.911 117.087 119.65 114.961C123.389 112.914 127.024 110.788 130.867 108.741C134.606 106.772 138.449 104.725 142.292 102.913C146.343 100.945 150.498 99.055 154.86 97.4014C156.625 96.7714 158.287 95.984 160.053 95.5115C160.884 95.2753 160.988 94.7241 160.365 94.2516C159.637 93.7004 158.807 93.2279 158.08 92.6767C154.029 89.9994 150.394 87.1646 147.278 83.8574C145.097 81.5738 143.123 79.2115 141.877 76.5342C140.942 74.4868 140.423 72.282 140.942 70.1559C141.565 67.7936 143.227 65.7463 145.72 64.1714C148.109 62.754 150.705 61.5728 153.51 60.9429C157.041 60.1554 160.676 59.5255 164.415 60.3917C165.973 60.7854 167.739 60.8641 169.297 61.3366C170.855 61.809 172.413 62.2815 173.867 62.8327C177.398 64.2501 180.618 65.9037 183.63 67.8723C186.953 69.9984 190.173 72.3608 193.081 74.8806C194.639 76.2192 196.197 77.5579 197.651 78.9753C198.482 79.7627 199.209 80.6289 199.936 81.4163C200.248 81.7313 200.56 81.9675 200.975 82.125C201.287 82.2825 201.598 82.3613 201.91 82.2038C202.221 81.9675 202.221 81.7313 202.014 81.4163C201.39 80.7076 201.39 79.8414 201.39 79.054C201.494 76.8492 201.079 74.6443 201.598 72.4395C202.117 70.5496 202.429 68.581 203.156 66.7699C204.091 64.6438 205.233 62.5177 206.791 60.6279C208.453 58.5018 210.323 56.5332 212.608 54.8008C215.516 52.5172 218.632 50.3911 222.371 49.0525C227.46 47.1626 231.303 47.9501 235.146 51.6511C237.327 53.6984 238.573 56.1395 239.716 58.6593C240.547 60.4704 241.274 62.2815 241.897 64.0926C242.416 65.5888 242.624 67.0849 243.143 68.581C244.39 72.5182 244.701 76.5342 245.532 80.5501C245.948 82.5187 245.74 84.6448 246.155 86.6134C246.467 87.9521 246.467 89.212 246.363 90.5506C246.363 91.1806 246.779 91.4168 247.506 91.5743C250.829 92.1255 254.153 92.283 257.476 92.7555C260.592 93.2279 263.708 93.7792 266.824 94.2516C269.317 94.6453 271.706 95.2753 274.198 95.8265C276.587 96.3777 278.976 96.9289 281.261 97.4801C283.962 98.1888 286.766 98.8975 289.466 99.8425C291.024 100.394 292.79 100.709 294.348 101.339C296.01 101.969 297.672 102.441 299.333 102.992C301.514 103.78 303.696 104.488 305.877 105.355C308.369 106.299 310.758 107.402 313.251 108.347C315.848 109.37 318.34 110.552 320.833 111.733C323.533 113.071 326.338 114.331 329.038 115.749C332.258 117.481 335.582 119.135 338.697 121.025C342.748 123.387 346.591 125.828 350.434 128.427C353.134 130.238 355.731 132.285 358.431 134.017C358.639 134.175 358.847 134.254 358.951 134.411C359.158 134.569 359.47 134.726 359.366 134.962C359.158 135.277 358.743 135.12 358.535 135.041C356.354 134.411 353.965 134.175 351.68 133.702C349.188 133.23 346.695 133.072 344.202 132.679C341.813 132.285 339.321 132.443 336.932 132.128C333.504 131.734 329.973 131.734 326.545 131.97C322.599 132.206 318.652 132.364 314.705 132.915C312.524 133.23 310.343 133.702 308.058 133.781C306.915 133.86 305.773 134.254 304.63 134.49C302.034 135.041 299.437 135.592 296.841 136.222C292.271 137.325 287.908 138.821 283.65 140.396C280.015 141.734 276.691 143.309 273.368 145.042C267.032 148.27 261.423 151.971 256.23 156.145C252.283 159.373 248.752 162.759 245.636 166.539C243.663 168.901 241.689 171.342 240.027 173.862C238.885 175.516 237.95 177.169 237.015 178.902C235.977 180.791 235.042 182.603 234.211 184.492C233.38 186.461 232.549 188.43 231.822 190.398C231.303 191.973 230.68 193.548 230.264 195.123C229.537 198.351 228.914 201.501 228.291 204.73C227.252 210.635 227.668 216.541 227.772 222.447C227.876 225.518 228.499 228.668 229.226 231.739C229.641 233.55 229.953 235.361 230.472 237.172C231.199 239.456 231.615 241.818 232.653 244.102C233.484 245.834 233.9 247.724 234.73 249.456C235.354 251.031 236.288 252.527 237.015 254.102C237.119 254.417 237.639 254.732 237.119 255.047C236.704 255.283 236.392 254.89 236.081 254.732C232.653 253.157 229.122 252.134 225.071 252.842C221.748 253.393 218.424 254.023 215.308 255.126C213.335 255.835 211.361 256.622 209.596 257.724C209.388 257.882 209.076 258.276 208.661 257.961C208.349 257.724 208.661 257.488 208.765 257.173C209.492 255.598 210.323 254.023 210.946 252.449C211.777 250.559 212.608 248.59 213.231 246.621C213.646 245.283 214.166 243.944 214.581 242.527C214.893 241.109 215.308 239.692 215.62 238.275C216.243 236.149 216.762 234.022 216.97 231.896C217.074 229.849 217.905 227.88 217.801 225.833C217.801 225.439 217.905 225.124 217.905 224.731C217.905 221.187 217.905 217.644 217.905 214.021C217.905 211.423 217.489 208.903 217.178 206.305C216.866 204.021 216.347 201.816 215.931 199.533C215.62 198.194 214.996 196.855 214.789 195.517C214.477 194.02 213.854 192.603 213.439 191.186C213.023 189.611 212.192 188.036 211.465 186.461C210.738 184.807 210.011 183.154 209.18 181.5C208.349 179.846 207.414 178.272 206.376 176.697C205.026 174.571 203.675 172.445 202.117 170.397C200.248 167.956 198.171 165.515 195.99 163.231C193.185 160.239 189.965 157.404 186.642 154.648C182.695 151.341 178.333 148.428 173.659 145.829C170.439 144.018 167.116 142.286 163.584 140.789C159.845 139.215 156.002 137.797 152.055 136.537C149.459 135.671 146.758 135.041 144.058 134.332C141.15 133.624 138.242 132.994 135.334 132.521C132.945 132.128 130.556 131.813 128.167 131.498C124.532 131.025 120.897 130.946 117.261 130.789C114.457 130.71 111.757 130.553 108.952 130.868C108.329 130.946 107.602 130.946 106.979 130.868C103.967 130.71 100.955 131.34 97.9428 131.498C95.8656 131.97 93.8922 132.679 91.6072 132.521Z" fill="#8636CD"/>
<path d="M119.754 115.04C119.754 115.04 111.341 117.481 94.3076 130.632C58.6826 157.956 0.830869 216.148 12.3597 285.679C29.3932 388.597 176.567 349.776 276.483 343.634C376.4 337.492 436.64 297.333 439.133 277.017C441.418 256.701 416.075 153.704 321.041 111.812C226.006 69.9198 119.754 115.04 119.754 115.04Z" fill="#8636CD"/>
<path d="M0 232.526C0 227.959 0 223.471 0 218.904C0.623178 218.904 0.727041 218.589 0.727041 218.195C0.830904 217.014 0.830904 215.911 1.03863 214.73C1.35022 212.683 1.76567 210.714 2.28499 208.746C2.70044 207.249 3.01203 205.675 3.53134 204.178C4.15452 201.895 4.98543 199.611 5.81633 197.406C6.43951 195.674 7.16655 194.02 7.99745 192.367C8.7245 190.949 9.24381 189.532 10.0747 188.115C11.3211 185.989 12.5674 183.862 13.9176 181.736C15.164 179.846 16.4104 177.957 17.7606 176.146C19.5263 173.862 21.3958 171.578 23.3692 169.452C27.0044 165.436 31.055 161.657 35.4173 158.113C39.2602 155.042 43.3109 152.207 47.6731 149.609C51.3083 147.404 55.0474 145.357 58.9942 143.545C62.3178 141.971 65.8492 140.632 69.3805 139.293C72.4964 138.191 75.6123 137.246 78.8321 136.38C82.3634 135.356 86.1025 134.569 89.7377 133.702C90.257 134.017 90.7763 133.86 91.2956 133.781C93.1652 133.545 95.0347 133.151 96.9042 132.915C100.851 132.364 104.798 131.97 108.848 131.813C117.988 131.498 127.024 131.97 135.957 133.545C137.411 133.781 138.761 134.096 140.111 134.332C143.435 134.884 146.551 135.671 149.667 136.537C152.679 137.403 155.587 138.348 158.495 139.451C162.961 141.104 167.323 142.994 171.374 145.199C177.71 148.585 183.422 152.444 188.615 156.853C191.42 159.216 194.12 161.735 196.509 164.334C199.002 167.011 201.287 169.767 203.26 172.602C204.61 174.492 205.857 176.382 206.999 178.35C208.038 180.161 209.076 181.973 210.011 183.784C210.738 185.359 211.465 186.855 212.088 188.508C212.815 190.319 213.439 192.209 214.062 194.02C214.581 195.359 214.997 196.776 215.308 198.115C215.724 200.005 216.139 201.895 216.554 203.785C217.178 206.934 217.593 210.163 217.801 213.313C218.216 219.927 217.905 226.463 216.658 233.077C216.139 235.834 215.516 238.668 214.789 241.424C214.166 243.708 213.542 245.992 212.712 248.196C211.569 251.267 210.323 254.338 208.765 257.409C208.349 258.118 207.726 258.827 207.726 259.614C207.518 260.165 206.895 260.48 206.376 260.874C202.948 263.315 200.352 266.15 198.586 269.379C196.924 272.371 195.47 275.521 194.12 278.592C193.808 279.379 192.978 280.088 192.978 280.954C192.562 281.033 192.354 281.348 192.147 281.584C188.615 285.285 184.772 288.75 180.618 292.057C177.502 294.498 174.074 296.781 170.543 298.986C165.142 302.294 159.43 305.128 153.406 307.569C149.147 309.223 144.889 310.719 140.319 311.979C137.307 312.845 134.191 313.554 131.075 314.105C125.674 315.129 120.17 315.759 114.665 316.074C107.291 316.468 100.02 316.231 92.7497 315.365C88.3875 314.814 84.0252 314.026 79.6629 313.082C75.1968 312.058 70.9385 310.877 66.7839 309.459C62.0062 307.806 57.4363 305.916 52.9702 303.711C48.0886 301.27 43.5186 298.593 39.1564 295.6C35.625 293.238 32.4053 290.639 29.3932 287.962C26.2773 285.285 23.473 282.371 20.8765 279.379C17.8644 275.914 15.164 272.213 12.6713 268.512C12.4636 268.119 12.4636 267.489 11.8404 267.489C11.2172 267.489 11.8404 268.276 11.2172 268.512C10.9056 268.276 10.9056 267.961 11.1133 267.804C11.9443 266.544 11.0095 265.441 10.3863 264.339C8.7245 261.425 7.27041 258.512 6.12792 255.441C4.7777 252.055 3.63521 248.669 2.8043 245.204C1.86953 241.346 1.03863 237.487 0.934767 233.55C0.727041 232.92 0.727041 232.526 0 232.526Z" fill="#F7D9D3"/>
<path d="M160.759 173.538C160.967 179.522 159.305 185.113 156.501 190.468C154.112 195.114 151.1 199.366 146.53 202.909C143.207 205.508 139.468 207.477 135.001 208.815C131.055 209.918 127.108 210.39 122.953 210.311C117.864 210.233 112.982 209.288 108.309 207.713C104.777 206.532 101.454 204.957 98.8571 202.752C95.8451 200.232 93.9756 197.319 92.9369 193.933C91.4828 189.208 91.8983 184.405 93.2485 179.759C94.2871 176.215 95.949 172.75 97.9224 169.364C100.311 165.348 103.116 161.647 106.855 158.34C110.801 154.797 115.371 151.962 121.084 150.151C124.927 148.97 128.874 148.182 133.028 148.34C143.83 148.812 152.243 152.356 157.02 159.994C159.825 164.325 160.967 168.971 160.759 173.538Z" fill="#8636CD"/>
<path d="M448.065 231.896C447.858 235.755 447.131 239.613 446.092 243.472C445.261 246.937 444.015 250.323 442.664 253.709C441.522 256.701 440.068 259.614 438.302 262.528C437.679 263.552 436.744 264.654 437.575 265.914C437.679 266.071 437.679 266.386 437.471 266.623C436.952 266.386 437.471 265.678 436.848 265.599C436.121 265.599 436.225 266.229 436.017 266.623C433.524 270.324 430.824 273.946 427.812 277.411C425.215 280.403 422.307 283.238 419.191 285.915C416.075 288.592 412.856 291.191 409.324 293.553C404.962 296.467 400.288 299.223 395.303 301.585C390.837 303.711 386.163 305.68 381.385 307.255C377.127 308.672 372.765 309.853 368.298 310.798C363.936 311.743 359.574 312.53 355.108 313.082C347.734 313.948 340.359 314.184 332.985 313.79C327.376 313.475 321.872 312.845 316.367 311.822C313.251 311.27 310.135 310.483 307.019 309.696C302.449 308.436 298.087 307.018 293.829 305.365C287.701 302.924 281.884 300.089 276.484 296.782C272.952 294.656 269.525 292.372 266.409 289.931C262.15 286.702 258.307 283.238 254.776 279.537C254.568 279.3 254.361 278.985 253.841 278.907C253.841 278.04 253.01 277.332 252.699 276.544C251.349 273.473 249.895 270.402 248.233 267.41C246.467 264.182 243.767 261.347 240.339 258.984C239.82 258.591 239.197 258.354 238.989 257.803C238.989 257.016 238.366 256.307 237.95 255.598C236.392 252.606 235.146 249.535 234.004 246.464C233.173 244.259 232.446 241.976 231.926 239.771C231.199 237.015 230.576 234.259 230.057 231.503C228.81 224.967 228.395 218.431 228.914 211.895C229.122 208.746 229.537 205.596 230.161 202.446C230.576 200.556 230.991 198.666 231.407 196.855C231.719 195.517 232.134 194.099 232.653 192.761C233.38 190.95 234.004 189.138 234.731 187.249C235.354 185.674 236.081 184.099 236.808 182.603C237.743 180.792 238.781 178.98 239.82 177.169C240.962 175.201 242.209 173.39 243.559 171.5C245.636 168.665 247.817 165.909 250.414 163.232C252.907 160.633 255.503 158.192 258.411 155.751C263.604 151.42 269.421 147.562 275.756 144.176C279.911 141.971 284.273 140.16 288.843 138.506C291.751 137.404 294.763 136.459 297.775 135.592C300.891 134.726 304.111 133.939 307.435 133.388C308.889 133.151 310.239 132.836 311.693 132.6C320.729 131.025 329.869 130.553 339.113 130.868C343.164 131.025 347.214 131.419 351.161 131.97C353.031 132.206 354.9 132.6 356.77 132.836C357.289 132.915 357.808 132.994 358.328 132.758C361.963 133.624 365.702 134.411 369.337 135.435C372.557 136.38 375.777 137.246 378.892 138.348C382.424 139.608 385.955 141.026 389.383 142.601C393.329 144.412 397.172 146.459 400.808 148.585C405.17 151.184 409.324 154.019 413.167 157.09C417.633 160.633 421.684 164.334 425.319 168.35C427.293 170.555 429.266 172.76 431.032 175.043C432.486 176.854 433.732 178.744 434.979 180.634C436.329 182.76 437.575 184.886 438.821 187.012C439.652 188.351 440.276 189.847 440.899 191.264C441.73 192.918 442.457 194.572 443.08 196.304C443.911 198.509 444.742 200.793 445.469 203.076C445.884 204.572 446.3 206.147 446.715 207.643C447.234 209.612 447.65 211.659 447.961 213.628C448.169 214.73 448.169 215.911 448.273 217.093C448.273 217.486 448.481 217.801 449 217.801C449 222.29 449 226.857 449 231.345C448.065 231.109 448.065 231.503 448.065 231.896Z" fill="#F7D9D3"/>
<path d="M289.728 174.304C289.52 180.288 291.182 185.8 293.986 191.155C296.375 195.722 299.491 199.974 304.061 203.518C307.384 206.038 311.227 208.085 315.797 209.345C319.744 210.447 323.795 210.841 327.949 210.841C333.142 210.762 338.024 209.817 342.698 208.243C346.333 207.061 349.553 205.565 352.149 203.36C355.161 200.841 357.135 197.927 358.07 194.62C359.524 189.895 359.108 185.17 357.758 180.525C356.719 176.981 355.058 173.516 353.084 170.209C350.695 166.272 347.787 162.571 344.048 159.264C340.101 155.799 335.427 152.885 329.715 151.153C325.872 149.972 321.821 149.184 317.667 149.342C306.761 149.814 298.348 153.358 293.467 160.917C290.662 165.169 289.52 169.737 289.728 174.304Z" fill="#8636CD"/>
<path d="M258.307 280.088C257.996 280.167 257.788 280.324 257.892 280.639C259.035 282.686 259.762 284.812 260.696 286.939C261.735 289.301 261.735 289.38 259.138 290.403C255.919 291.663 252.491 292.687 248.96 293.553C245.532 294.34 242.105 294.97 238.573 295.443C234.938 295.915 231.303 296.23 227.668 296.388C224.552 296.545 221.332 296.86 218.216 296.703C212.504 296.467 206.688 296.467 201.079 295.522C198.067 295.049 195.263 294.262 192.978 292.608C191.004 291.269 189.862 289.537 189.758 287.49C189.654 285.364 189.446 283.316 190.485 281.269C190.693 280.954 190.485 280.481 190.589 280.088C190.589 279.143 191.42 278.513 191.731 277.647C193.185 274.497 194.639 271.268 196.301 268.197C198.171 264.89 200.871 261.977 204.299 259.457C204.818 259.063 205.441 258.748 205.649 258.197C206.999 258.276 207.622 257.409 208.557 256.937C212.088 254.968 215.931 253.708 220.086 252.842C221.852 252.449 223.721 252.134 225.591 252.055C229.122 251.819 232.342 252.527 235.25 254.023C236.289 254.575 237.327 255.205 238.573 255.52C242.624 258.669 246.052 262.055 248.856 265.914C251.453 269.457 253.737 273.001 255.711 276.781C256.542 277.883 257.165 279.143 258.307 280.088Z" fill="#FD818D"/>
</g>
<defs>
<clipPath id="clip0_310_1713">
<rect width="449" height="464" fill="white"/>
</clipPath>
</defs>
</svg>
