<svg width="216" height="64" viewBox="0 0 216 64" fill="none" xmlns="http://www.w3.org/2000/svg">
<g id="Frame" clip-path="url(#clip0_206_1925)">
<path id="Vector" d="M208 0H8C3.58172 0 0 3.58172 0 8V56C0 60.4183 3.58172 64 8 64H208C212.418 64 216 60.4183 216 56V8C216 3.58172 212.418 0 208 0Z" fill="black"/>
<path id="Vector_2" d="M208 1.28C209.782 1.28 211.492 1.988 212.752 3.24824C214.012 4.50849 214.72 6.21775 214.72 8V56C214.72 57.7823 214.012 59.4915 212.752 60.7518C211.492 62.012 209.782 62.72 208 62.72H8C6.21775 62.72 4.50849 62.012 3.24824 60.7518C1.988 59.4915 1.28 57.7823 1.28 56V8C1.28 6.21775 1.988 4.50849 3.24824 3.24824C4.50849 1.988 6.21775 1.28 8 1.28H208ZM208 0H8C5.87827 0 3.84344 0.842855 2.34315 2.34315C0.842855 3.84344 0 5.87827 0 8V56C0 58.1217 0.842855 60.1566 2.34315 61.6569C3.84344 63.1571 5.87827 64 8 64H208C210.122 64 212.157 63.1571 213.657 61.6569C215.157 60.1566 216 58.1217 216 56V8C216 5.87827 215.157 3.84344 213.657 2.34315C212.157 0.842855 210.122 0 208 0Z" fill="#A6A6A6"/>
<path id="Vector_3" d="M109.024 34.7999C107.68 34.8062 106.369 35.2104 105.255 35.9614C104.141 36.7124 103.274 37.7766 102.764 39.0197C102.255 40.2628 102.125 41.629 102.391 42.946C102.657 44.2629 103.307 45.4716 104.259 46.4194C105.211 47.3672 106.423 48.0117 107.741 48.2714C109.059 48.5312 110.425 48.3947 111.666 47.8791C112.906 47.3635 113.966 46.4919 114.712 45.3744C115.458 44.2568 115.856 42.9434 115.856 41.5999C115.869 40.7006 115.701 39.8078 115.362 38.9748C115.023 38.1418 114.519 37.3855 113.882 36.7511C113.245 36.1166 112.486 35.6169 111.651 35.2817C110.817 34.9464 109.923 34.7826 109.024 34.7999ZM109.024 45.7279C108.198 45.7856 107.373 45.5935 106.658 45.1765C105.942 44.7594 105.368 44.1367 105.011 43.3894C104.654 42.642 104.53 41.8045 104.655 40.9857C104.781 40.1669 105.149 39.4048 105.714 38.7983C106.278 38.1919 107.011 37.7691 107.819 37.5851C108.626 37.4011 109.471 37.4642 110.242 37.7664C111.013 38.0686 111.676 38.5957 112.143 39.2794C112.611 39.963 112.862 40.7716 112.864 41.5999C112.89 42.1247 112.81 42.6494 112.63 43.1429C112.45 43.6365 112.173 44.089 111.815 44.4737C111.457 44.8585 111.025 45.1677 110.546 45.383C110.067 45.5984 109.549 45.7157 109.024 45.7279ZM94.1278 34.7999C92.7836 34.803 91.4705 35.2045 90.3543 35.9536C89.2382 36.7027 88.3691 37.7659 87.8569 39.0087C87.3446 40.2515 87.2122 41.6182 87.4764 42.9363C87.7406 44.2543 88.3895 45.4644 89.3411 46.4138C90.2928 47.3632 91.5044 48.0093 92.8231 48.2703C94.1417 48.5314 95.5081 48.3958 96.7497 47.8807C97.9913 47.3656 99.0524 46.494 99.7989 45.3761C100.546 44.2582 100.944 42.9441 100.944 41.5999C100.957 40.7006 100.789 39.8078 100.45 38.9748C100.111 38.1418 99.6073 37.3855 98.9698 36.7511C98.3324 36.1166 97.5738 35.6169 96.7392 35.2817C95.9046 34.9464 95.011 34.7826 94.1118 34.7999H94.1278ZM94.1278 45.7279C93.3011 45.7889 92.4752 45.5997 91.7576 45.1847C91.04 44.7698 90.4639 44.1485 90.1044 43.4016C89.7448 42.6547 89.6185 41.8169 89.7417 40.9972C89.865 40.1775 90.2322 39.4139 90.7955 38.8058C91.3588 38.1977 92.0922 37.7732 92.9001 37.5877C93.708 37.4023 94.553 37.4643 95.3252 37.7658C96.0973 38.0672 96.7608 38.5942 97.2293 39.278C97.6978 39.9619 97.9496 40.7709 97.9518 41.5999C97.9776 42.1247 97.898 42.6494 97.7178 43.1429C97.5376 43.6365 97.2603 44.089 96.9024 44.4737C96.5445 44.8585 96.1132 45.1677 95.634 45.383C95.1547 45.5984 94.6371 45.7157 94.1118 45.7279H94.1278ZM76.3838 36.8959V39.7759H83.2958C83.1874 41.1323 82.6236 42.4123 81.6958 43.4079C81.0043 44.1122 80.173 44.664 79.2554 45.0278C78.3377 45.3915 77.3541 45.5592 76.3678 45.5199C74.3309 45.5199 72.3775 44.7107 70.9372 43.2704C69.497 41.8302 68.6878 39.8767 68.6878 37.8399C68.6878 35.803 69.497 33.8496 70.9372 32.4093C72.3775 30.969 74.3309 30.1599 76.3678 30.1599C78.3163 30.1281 80.1978 30.8703 81.5998 32.2239L83.6318 30.1919C82.6854 29.2335 81.5562 28.4749 80.3112 27.9609C79.0662 27.447 77.7307 27.1882 76.3838 27.1999C74.9614 27.1445 73.5425 27.3769 72.212 27.883C70.8816 28.3892 69.667 29.1587 68.641 30.1455C67.6151 31.1323 66.7989 32.316 66.2414 33.6258C65.6839 34.9355 65.3965 36.3444 65.3965 37.7679C65.3965 39.1913 65.6839 40.6002 66.2414 41.9099C66.7989 43.2197 67.6151 44.4035 68.641 45.3902C69.667 46.377 70.8816 47.1466 72.212 47.6527C73.5425 48.1589 74.9614 48.3912 76.3838 48.3359C77.7533 48.3977 79.1202 48.1656 80.3925 47.655C81.6648 47.1444 82.813 46.3673 83.7598 45.3759C85.4361 43.5341 86.3311 41.1131 86.2558 38.6239C86.261 38.0174 86.2074 37.4119 86.0958 36.8159L76.3838 36.8959ZM148.88 39.1359C148.463 37.9082 147.682 36.8363 146.642 36.062C145.602 35.2877 144.352 34.8476 143.056 34.7999C142.181 34.7981 141.315 34.976 140.511 35.3223C139.707 35.6687 138.983 36.1762 138.383 36.8135C137.783 37.4508 137.32 38.2044 137.023 39.0277C136.726 39.8509 136.601 40.7264 136.656 41.5999C136.637 42.4941 136.798 43.3831 137.129 44.2138C137.461 45.0444 137.957 45.7997 138.587 46.4344C139.218 47.0691 139.969 47.5703 140.798 47.908C141.626 48.2457 142.514 48.413 143.408 48.3999C144.527 48.4059 145.63 48.1343 146.619 47.6093C147.607 47.0844 148.45 46.3225 149.072 45.3919L146.752 43.7919C146.406 44.3691 145.916 44.8466 145.329 45.1775C144.743 45.5085 144.081 45.6816 143.408 45.6799C142.715 45.7063 142.03 45.5236 141.442 45.1555C140.854 44.7873 140.391 44.2509 140.112 43.6159L149.216 39.8559L148.88 39.1359ZM139.6 41.4079C139.568 40.913 139.634 40.4166 139.796 39.9478C139.958 39.4789 140.212 39.0471 140.542 38.6776C140.873 38.3081 141.274 38.0083 141.722 37.7957C142.171 37.5832 142.657 37.4622 143.152 37.4399C143.668 37.4059 144.183 37.5242 144.632 37.7802C145.082 38.0362 145.446 38.4186 145.68 38.8799L139.6 41.4079ZM132.208 47.9999H135.2V27.9999H132.208V47.9999ZM127.312 36.3199H127.2C126.749 35.8157 126.197 35.4125 125.579 35.1368C124.961 34.8611 124.292 34.719 123.616 34.7199C121.868 34.8046 120.219 35.5589 119.011 36.8264C117.804 38.0938 117.13 39.7773 117.13 41.5279C117.13 43.2784 117.804 44.9619 119.011 46.2293C120.219 47.4968 121.868 48.2511 123.616 48.3359C124.294 48.3473 124.966 48.2099 125.586 47.9335C126.205 47.657 126.756 47.2482 127.2 46.7359H127.296V47.7119C127.296 50.3199 125.904 51.7119 123.664 51.7119C122.918 51.6944 122.194 51.4553 121.584 51.0251C120.974 50.5948 120.507 49.9929 120.24 49.2959L117.632 50.3839C118.123 51.578 118.959 52.5983 120.034 53.3139C121.109 54.0294 122.373 54.4076 123.664 54.3999C127.168 54.3999 130.064 52.3359 130.064 47.3119V35.1999H127.312V36.3199ZM123.888 45.7279C122.856 45.6369 121.895 45.1626 121.196 44.3985C120.496 43.6344 120.108 42.6359 120.108 41.5999C120.108 40.5638 120.496 39.5653 121.196 38.8012C121.895 38.0371 122.856 37.5628 123.888 37.4719C124.4 37.4981 124.901 37.6265 125.362 37.8495C125.824 38.0725 126.236 38.3856 126.574 38.7702C126.913 39.1549 127.171 39.6035 127.333 40.0894C127.496 40.5754 127.559 41.089 127.52 41.5999C127.564 42.113 127.503 42.6296 127.341 43.1185C127.179 43.6074 126.92 44.0584 126.579 44.4443C126.238 44.8302 125.822 45.1429 125.357 45.3635C124.892 45.5841 124.387 45.7081 123.872 45.7279H123.888ZM162.896 27.9999H155.744V47.9999H158.736V40.4159H162.912C163.765 40.4771 164.621 40.3621 165.427 40.0778C166.234 39.7936 166.973 39.3463 167.598 38.7638C168.224 38.1814 168.723 37.4762 169.065 36.6924C169.406 35.9085 169.582 35.0628 169.582 34.2079C169.582 33.3529 169.406 32.5072 169.065 31.7233C168.723 30.9395 168.224 30.2343 167.598 29.6519C166.973 29.0694 166.234 28.6221 165.427 28.3379C164.621 28.0537 163.765 27.9386 162.912 27.9999H162.896ZM162.896 37.5999H158.72V30.7839H162.96C163.87 30.7839 164.743 31.1454 165.387 31.7891C166.03 32.4327 166.392 33.3056 166.392 34.2159C166.392 35.1261 166.03 35.999 165.387 36.6426C164.743 37.2863 163.87 37.6479 162.96 37.6479L162.896 37.5999ZM181.344 34.7199C180.255 34.6548 179.17 34.9093 178.224 35.4522C177.277 35.9951 176.51 36.8028 176.016 37.7759L178.672 38.8799C178.934 38.3972 179.33 38.0011 179.813 37.7398C180.296 37.4784 180.845 37.3631 181.392 37.4079C181.772 37.3635 182.157 37.3952 182.524 37.5012C182.892 37.6071 183.234 37.7852 183.532 38.025C183.83 38.2648 184.077 38.5615 184.259 38.8978C184.441 39.2341 184.554 39.6033 184.592 39.9839V40.1919C183.631 39.6831 182.559 39.4193 181.472 39.4239C178.608 39.4239 175.712 41.0239 175.712 43.9199C175.74 44.5374 175.892 45.1429 176.158 45.7007C176.425 46.2586 176.8 46.7573 177.263 47.1675C177.725 47.5777 178.265 47.8911 178.851 48.089C179.436 48.2869 180.056 48.3654 180.672 48.3199C181.425 48.374 182.18 48.2242 182.855 47.8864C183.531 47.5486 184.103 47.0351 184.512 46.3999H184.608V47.9999H187.488V40.3039C187.488 36.7999 184.832 34.7679 181.424 34.7679L181.344 34.7199ZM180.976 45.6799C180 45.6799 178.64 45.1839 178.64 43.9839C178.64 42.3839 180.336 41.8559 181.84 41.8559C182.79 41.8324 183.73 42.0645 184.56 42.5279C184.46 43.3941 184.05 44.195 183.406 44.783C182.762 45.3711 181.928 45.7066 181.056 45.7279L180.976 45.6799ZM197.984 35.1999L194.56 43.8719H194.464L190.912 35.1999H187.712L193.04 47.3279L190 54.0639H193.12L201.312 35.1999H197.984ZM171.088 47.9999H174.08V27.9999H171.088V47.9999Z" fill="white"/>
<path id="Vector_4" d="M75.7723 16.484C75.7995 17.0708 75.7071 17.6571 75.5008 18.2072C75.2946 18.7573 74.9786 19.2597 74.5723 19.684C74.1185 20.1553 73.5705 20.5258 72.964 20.7711C72.3575 21.0165 71.7061 21.1313 71.0523 21.108C70.0602 21.1002 69.0926 20.7999 68.2705 20.2445C67.4484 19.6892 66.8085 18.9036 66.431 17.9862C66.0534 17.0688 65.955 16.0604 66.1481 15.0873C66.3411 14.1142 66.8171 13.2198 67.5163 12.516C67.9758 12.0468 68.5267 11.677 69.1349 11.4293C69.7431 11.1816 70.3957 11.0614 71.0523 11.076C71.7287 11.0737 72.3984 11.2099 73.0203 11.476C73.5992 11.7095 74.1146 12.0769 74.5243 12.548L73.6763 13.396C73.3569 13.0161 72.9536 12.7158 72.4982 12.5186C72.0428 12.3214 71.5478 12.2329 71.0523 12.26C70.5525 12.2575 70.0574 12.356 69.5966 12.5496C69.1358 12.7431 68.7188 13.0277 68.3707 13.3863C68.0226 13.7449 67.7505 14.1701 67.5706 14.6364C67.3908 15.1027 67.307 15.6005 67.3243 16.1C67.3138 16.8458 67.5244 17.578 67.9296 18.2043C68.3348 18.8305 68.9164 19.3227 69.601 19.6188C70.2856 19.9149 71.0425 20.0016 71.7763 19.868C72.5102 19.7343 73.188 19.3864 73.7243 18.868C74.2166 18.3344 74.5006 17.6416 74.5243 16.916H71.0523V15.764H75.7083C75.7509 16.0016 75.7724 16.2426 75.7723 16.484ZM83.1003 12.484H78.7803V15.524H82.7163V16.676H78.7803V19.716H83.1003V20.9H77.5003V11.3H83.1003V12.484ZM88.3483 20.9H87.1163V12.484H84.4283V11.3H91.1003V12.484H88.3483V20.9ZM95.8043 20.9V11.3H97.0363V20.9H95.8043ZM102.508 20.9H101.276V12.484H98.5883V11.3H105.18V12.484H102.508V20.9ZM117.676 19.652C116.741 20.5821 115.475 21.1043 114.156 21.1043C112.837 21.1043 111.572 20.5821 110.636 19.652C109.727 18.6896 109.22 17.4159 109.22 16.092C109.22 14.7681 109.727 13.4943 110.636 12.532C111.097 12.0676 111.646 11.699 112.25 11.4475C112.854 11.1959 113.502 11.0664 114.156 11.0664C114.811 11.0664 115.458 11.1959 116.063 11.4475C116.667 11.699 117.215 12.0676 117.676 12.532C118.589 13.4925 119.098 14.7669 119.098 16.092C119.098 17.417 118.589 18.6915 117.676 19.652ZM111.548 18.852C112.241 19.5418 113.179 19.9291 114.156 19.9291C115.134 19.9291 116.071 19.5418 116.764 18.852C117.448 18.0984 117.826 17.1174 117.826 16.1C117.826 15.0826 117.448 14.1016 116.764 13.348C116.071 12.6582 115.134 12.2709 114.156 12.2709C113.179 12.2709 112.241 12.6582 111.548 13.348C110.865 14.1016 110.486 15.0826 110.486 16.1C110.486 17.1174 110.865 18.0984 111.548 18.852ZM120.828 20.9V11.3H122.332L127.004 18.772V11.3H128.236V20.9H126.956L122.076 13.076V20.9H120.828Z" fill="white"/>
<path id="Vector_5" fill-rule="evenodd" clip-rule="evenodd" d="M114.156 11.2263C113.523 11.2263 112.896 11.3515 112.311 11.595C111.727 11.8381 111.197 12.1944 110.751 12.6432C109.871 13.5757 109.38 14.8094 109.38 16.0918C109.38 17.374 109.871 18.6078 110.751 19.5402C111.656 20.4394 112.88 20.9441 114.156 20.9441C115.432 20.9441 116.657 20.4394 117.562 19.54C118.445 18.6094 118.938 17.375 118.938 16.0918C118.938 14.8084 118.445 13.574 117.561 12.6434C117.116 12.1945 116.585 11.8382 116.001 11.595C115.416 11.3515 114.789 11.2263 114.156 11.2263ZM112.188 11.2996C112.812 11.04 113.481 10.9062 114.156 10.9062C114.832 10.9062 115.5 11.04 116.124 11.2996C116.748 11.5593 117.314 11.9398 117.79 12.4192L117.792 12.4215C118.733 13.4118 119.258 14.7257 119.258 16.0918C119.258 17.4579 118.733 18.7717 117.792 19.762L117.789 19.7653C116.824 20.7252 115.518 21.2641 114.156 21.2641C112.795 21.2641 111.489 20.7253 110.523 19.7653L110.52 19.7618C109.583 18.7697 109.06 17.4565 109.06 16.0918C109.06 14.727 109.583 13.4141 110.52 12.422L110.523 12.4191C110.998 11.9397 111.565 11.5593 112.188 11.2996ZM71.0486 11.2358C70.4139 11.2217 69.7831 11.3379 69.1952 11.5774C68.6072 11.8168 68.0747 12.1743 67.6305 12.6278L67.6297 12.6287C66.9527 13.3101 66.4918 14.1762 66.3049 15.1184C66.118 16.0606 66.2133 17.037 66.5788 17.9252C66.9444 18.8135 67.564 19.5742 68.36 20.1118C69.1559 20.6494 70.0929 20.9404 71.0534 20.9479H71.0579C71.6892 20.9704 72.3182 20.8596 72.9039 20.6227C73.4895 20.3858 74.0186 20.0282 74.4567 19.5731C74.8481 19.1645 75.1523 18.6805 75.3509 18.1508C75.5496 17.621 75.6385 17.0564 75.6123 16.4913L75.7722 16.4838L75.6122 16.4838C75.6122 16.2964 75.5988 16.1093 75.572 15.9239H71.2122V16.7559H74.6895L74.6841 16.9211C74.6591 17.6851 74.3601 18.4145 73.8417 18.9763L73.8355 18.9831C73.2765 19.5235 72.5698 19.886 71.8049 20.0253C71.04 20.1646 70.251 20.0742 69.5373 19.7655C68.8237 19.4569 68.2175 18.9438 67.7952 18.2911C67.3735 17.6394 67.154 16.8776 67.1641 16.1015C67.1467 15.5818 67.2342 15.0639 67.4213 14.5787C67.6088 14.0923 67.8927 13.6488 68.2558 13.2747C68.619 12.9007 69.0539 12.6038 69.5345 12.4019C70.0137 12.2007 70.5285 12.098 71.0482 12.0999C71.5669 12.0723 72.0849 12.1653 72.5617 12.3717C72.9865 12.5556 73.3682 12.825 73.6832 13.1625L74.3034 12.5423C73.9278 12.1432 73.4697 11.8297 72.9603 11.6243L72.9572 11.623C72.3554 11.3655 71.7073 11.2337 71.0527 11.2359L71.0486 11.2358ZM75.9322 16.4802C75.9598 17.0875 75.864 17.694 75.6505 18.2632C75.4367 18.8336 75.1091 19.3546 74.6877 19.7946C74.2184 20.2821 73.6513 20.6654 73.0239 20.9192C72.3973 21.1728 71.7243 21.2915 71.0487 21.2678C70.0259 21.2593 69.0284 20.9496 68.1808 20.377C67.3327 19.8041 66.6724 18.9936 66.2829 18.047C65.8934 17.1005 65.7918 16.0601 65.991 15.0561C66.1902 14.0523 66.6811 13.1295 67.4023 12.4035C67.877 11.9188 68.4462 11.5369 69.0745 11.281C69.7023 11.0253 70.3759 10.9011 71.0537 10.9159C71.7507 10.9138 72.4407 11.0541 73.0816 11.3281C73.6833 11.5711 74.2191 11.9531 74.6449 12.4429L74.7428 12.5555L73.6659 13.6323L73.5537 13.4988C73.2503 13.138 72.8672 12.8525 72.4345 12.6652C72.0019 12.4779 71.5316 12.3938 71.0609 12.4195L71.0514 12.4201C70.5731 12.4177 70.0994 12.5117 69.6584 12.6969C69.2175 12.8821 68.8185 13.1544 68.4854 13.4976C68.1523 13.8407 67.8919 14.2476 67.7198 14.6938C67.5478 15.1401 67.4676 15.6163 67.4841 16.0943L67.4843 16.102C67.4743 16.8162 67.6758 17.5175 68.0638 18.1172C68.4518 18.7169 69.0088 19.1883 69.6644 19.4718C70.32 19.7554 71.0448 19.8384 71.7476 19.7105C72.4488 19.5828 73.0966 19.2507 73.6097 18.7559C74.0366 18.2919 74.2974 17.701 74.3541 17.0759H70.8922V15.6039H75.842L75.8656 15.7355C75.9098 15.9813 75.932 16.2305 75.9322 16.4802ZM77.3402 11.1399H83.2602V12.6439H78.9402V15.3639H82.8762V16.8359H78.9402V19.5559H83.2602V21.0598H77.3402V11.1399ZM77.6602 11.4599V20.7399H82.9402V19.8758H78.6202V16.5159H82.5562V15.6839H78.6202V12.3239H82.9402V11.4599H77.6602ZM84.2682 11.1399H91.2602V12.6439H88.5082V21.0598H86.9562V12.6439H84.2682V11.1399ZM84.5882 11.4599V12.3239H87.2762V20.7399H88.1882V12.3239H90.9402V11.4599H84.5882ZM95.6442 11.1399H97.1962V21.0598H95.6442V11.1399ZM95.9642 11.4599V20.7399H96.8762V11.4599H95.9642ZM98.4282 11.1399H105.34V12.6439H102.668V21.0598H101.116V12.6439H98.4282V11.1399ZM98.7482 11.4599V12.3239H101.436V20.7399H102.348V12.3239H105.02V11.4599H98.7482ZM120.668 11.1399H122.421L126.844 18.2142V11.1399H128.396V21.0598H126.867L122.236 13.6347V21.0598H120.668V11.1399ZM120.988 11.4599V20.7399H121.916V12.517L127.045 20.7399H128.076V11.4599H127.164V19.3296L122.243 11.4599H120.988ZM111.435 13.2345C112.158 12.5149 113.136 12.1108 114.156 12.1108C115.176 12.1108 116.154 12.5149 116.877 13.2345L116.883 13.2402C117.593 14.0232 117.986 15.0427 117.986 16.0999C117.986 17.157 117.593 18.1763 116.883 18.9593L116.877 18.9654C116.155 19.6851 115.176 20.089 114.156 20.089C113.136 20.089 112.158 19.6849 111.435 18.9653L111.548 18.8518L111.43 18.9593C110.719 18.1763 110.326 17.157 110.326 16.0999C110.326 15.0427 110.719 14.0234 111.43 13.2404L111.435 13.2345ZM111.664 18.7414C112.326 19.3995 113.222 19.769 114.156 19.769C115.09 19.769 115.986 19.3995 116.648 18.7414C117.304 18.0176 117.666 17.0762 117.666 16.0999C117.666 15.1235 117.304 14.1821 116.648 13.4584C115.986 12.8002 115.09 12.4307 114.156 12.4307C113.222 12.4307 112.326 12.8002 111.664 13.4584C111.009 14.1821 110.646 15.1235 110.646 16.0999C110.646 17.0762 111.009 18.0176 111.664 18.7414Z" fill="white"/>
<path id="Vector_6" d="M16.7036 12.0641C16.1821 12.6898 15.9189 13.4909 15.9676 14.3041V49.6961C15.9189 50.5092 16.1821 51.3103 16.7036 51.9361L16.8156 52.0481L36.6396 32.2402V31.7761L16.8156 11.9521L16.7036 12.0641Z" fill="url(#paint0_linear_206_1925)"/>
<path id="Vector_7" d="M43.1996 38.8479L36.6396 32.2399V31.7759L43.1996 25.1519L43.3436 25.2319L51.1996 29.6959C53.4396 30.9599 53.4396 33.0399 51.1996 34.3199L43.3756 38.7679L43.1996 38.8479Z" fill="url(#paint1_linear_206_1925)"/>
<path id="Vector_8" d="M43.3921 38.752L36.6401 32L16.7041 51.936C17.1606 52.3374 17.7431 52.5667 18.3507 52.5842C18.9584 52.6017 19.5531 52.4064 20.0321 52.032L43.4081 38.752" fill="url(#paint2_linear_206_1925)"/>
<path id="Vector_9" d="M43.3925 25.2478L20.0165 11.9678C19.5375 11.5934 18.9428 11.3981 18.3352 11.4156C17.7275 11.4331 17.1451 11.6624 16.6885 12.0638L36.6405 31.9998L43.3925 25.2478Z" fill="url(#paint3_linear_206_1925)"/>
<path id="Vector_10" opacity="0.2" d="M43.2001 38.6079L20.0161 51.8079C19.5541 52.1532 18.9928 52.3399 18.4161 52.3399C17.8393 52.3399 17.278 52.1532 16.8161 51.8079L16.7041 51.9199L16.8161 52.0319C17.2769 52.3797 17.8386 52.5679 18.4161 52.5679C18.9935 52.5679 19.5552 52.3797 20.0161 52.0319L43.3921 38.7519L43.2001 38.6079Z" fill="black"/>
<path id="Vector_11" opacity="0.12" d="M16.7036 51.712C16.1821 51.0863 15.9189 50.2852 15.9676 49.472V49.712C15.9189 50.5252 16.1821 51.3263 16.7036 51.952L16.8156 51.84L16.7036 51.712ZM51.1996 34.08L43.1996 38.608L43.3436 38.752L51.1996 34.304C51.6453 34.0946 52.028 33.7714 52.3089 33.3668C52.5898 32.9623 52.7591 32.4909 52.7996 32C52.7096 32.446 52.5186 32.8653 52.2412 33.2259C51.9639 33.5865 51.6075 33.8787 51.1996 34.08Z" fill="black"/>
<path id="Vector_12" opacity="0.25" d="M20.0161 12.1914L51.2001 29.9194C51.6081 30.1207 51.9644 30.4129 52.2417 30.7735C52.5191 31.1341 52.7101 31.5534 52.8001 31.9994C52.7596 31.5085 52.5903 31.0371 52.3094 30.6325C52.0285 30.228 51.646 29.9048 51.2001 29.6954L20.0161 11.9674C17.7761 10.7034 15.9521 11.7594 15.9521 14.3194V14.5594C16.0001 11.9834 17.7921 10.9274 20.0161 12.1914Z" fill="white"/>
</g>
<defs>
<linearGradient id="paint0_linear_206_1925" x1="34.8796" y1="13.9361" x2="8.03163" y2="40.7841" gradientUnits="userSpaceOnUse">
<stop stop-color="#00A0FF"/>
<stop offset="0.01" stop-color="#00A1FF"/>
<stop offset="0.26" stop-color="#00BEFF"/>
<stop offset="0.51" stop-color="#00D2FF"/>
<stop offset="0.76" stop-color="#00DFFF"/>
<stop offset="1" stop-color="#00E3FF"/>
</linearGradient>
<linearGradient id="paint1_linear_206_1925" x1="54.1276" y1="31.9999" x2="15.4236" y2="31.9999" gradientUnits="userSpaceOnUse">
<stop stop-color="#FFE000"/>
<stop offset="0.41" stop-color="#FFBD00"/>
<stop offset="0.78" stop-color="#FFA500"/>
<stop offset="1" stop-color="#FF9C00"/>
</linearGradient>
<linearGradient id="paint2_linear_206_1925" x1="39.7281" y1="35.68" x2="3.31207" y2="72.08" gradientUnits="userSpaceOnUse">
<stop stop-color="#FF3A44"/>
<stop offset="1" stop-color="#C31162"/>
</linearGradient>
<linearGradient id="paint3_linear_206_1925" x1="11.6805" y1="0.287802" x2="27.9365" y2="16.5438" gradientUnits="userSpaceOnUse">
<stop stop-color="#32A071"/>
<stop offset="0.07" stop-color="#2DA771"/>
<stop offset="0.48" stop-color="#15CF74"/>
<stop offset="0.8" stop-color="#06E775"/>
<stop offset="1" stop-color="#00F076"/>
</linearGradient>
<clipPath id="clip0_206_1925">
<rect width="216" height="64" fill="white"/>
</clipPath>
</defs>
</svg>
